<?xml version="1.0" encoding="UTF-8"?>
<svg xmlns="http://www.w3.org/2000/svg" xmlns:xlink="http://www.w3.org/1999/xlink" width="810pt" height="809.999993pt" viewBox="0 0 810 809.999993" version="1.2">
<defs>
<clipPath id="clip1">
  <path d="M 473.101562 23 L 745.351562 23 L 745.351562 115 L 473.101562 115 Z M 473.101562 23 "/>
</clipPath>
<clipPath id="clip2">
  <path d="M 473.101562 23 L 745.351562 23 L 745.351562 115 L 473.101562 115 Z M 473.101562 23 "/>
</clipPath>
<clipPath id="clip3">
  <path d="M 566 566 L 801.574219 566 L 801.574219 704 L 566 704 Z M 566 566 "/>
</clipPath>
</defs>
<g id="surface1">
<g clip-path="url(#clip1)" clip-rule="nonzero">
<path style=" stroke:none;fill-rule:nonzero;fill:rgb(0%,0%,0%);fill-opacity:1;" d="M 743.691406 34.082031 C 743.089844 27.628906 739.5625 23.738281 733.246094 23.324219 C 721.890625 22.566406 710.035156 23.605469 698.625 23.660156 C 684.390625 23.695312 670.152344 23.738281 655.914062 23.792969 C 628.203125 23.890625 600.492188 23.996094 572.78125 24.09375 C 546.25 24.183594 519.707031 24.351562 493.183594 24.371094 C 487.488281 24.371094 479.039062 22.078125 475.042969 27.621094 C 473.785156 29.367188 474.6875 33.84375 474.800781 35.832031 C 475.121094 41.808594 474.386719 48.226562 474.261719 54.238281 C 474.085938 63.800781 473.492188 73.378906 473.339844 82.960938 C 473.023438 83.492188 473.023438 84.183594 473.332031 84.726562 C 473.3125 86.359375 473.261719 87.992188 473.277344 89.628906 C 473.359375 96.785156 473.394531 105.652344 478.117188 111.441406 C 479.914062 113.660156 483.371094 113.484375 485.839844 113.394531 C 491.554688 113.164062 497.234375 113.03125 502.957031 112.996094 C 516.636719 112.925781 530.296875 112.710938 543.964844 112.527344 C 560.265625 112.304688 576.558594 112.136719 592.847656 112.234375 C 600.625 112.269531 608.394531 112.472656 616.140625 112.808594 C 624.050781 113.148438 631.882812 112.171875 639.792969 112.402344 C 654.789062 112.890625 669.894531 112.550781 684.847656 113.6875 C 701.796875 114.96875 719 114.84375 735.867188 112.695312 C 735.902344 112.695312 735.921875 112.675781 735.9375 112.675781 C 736.070312 112.660156 736.167969 112.675781 736.300781 112.640625 C 741.609375 111.023438 742.070312 106.480469 742.523438 101.5 C 742.972656 96.457031 744.382812 91.546875 744.867188 86.492188 C 745.523438 79.621094 745.179688 72.617188 745.195312 65.734375 C 745.207031 55.277344 744.691406 44.488281 743.691406 34.082031 "/>
</g>
<path style=" stroke:none;fill-rule:nonzero;fill:rgb(90.19928%,90.19928%,90.19928%);fill-opacity:1;" d="M 685.699219 101.125 C 685.839844 101.5625 685.992188 102.136719 686.046875 102.652344 C 646.179688 102.875 606.296875 103.195312 566.429688 103.460938 C 546.214844 103.621094 526.023438 103.753906 505.816406 103.886719 C 504.171875 103.886719 502.503906 103.90625 500.839844 103.921875 C 497.792969 103.941406 496.730469 101.878906 496.320312 99.289062 C 527.503906 99.191406 558.679688 99.019531 589.863281 98.898438 C 621.125 98.765625 654.960938 100.335938 685.113281 98.648438 C 685.1875 99.527344 685.417969 100.300781 685.699219 101.125 "/>
<path style=" stroke:none;fill-rule:nonzero;fill:rgb(90.19928%,90.19928%,90.19928%);fill-opacity:1;" d="M 716.617188 99.847656 C 718.550781 99.847656 720.214844 100.042969 721.570312 100.023438 C 721.136719 105.539062 712.738281 103.210938 707.890625 103.210938 C 701.949219 103.210938 695.402344 103.78125 689.421875 102.953125 C 689.421875 102.5 689.332031 102.050781 689.199219 101.578125 C 689.085938 101.144531 689.066406 100.671875 688.941406 100.230469 C 688.914062 100.148438 688.878906 100.042969 688.84375 99.960938 C 697.953125 100.71875 707.546875 99.847656 716.617188 99.847656 "/>
<path style=" stroke:none;fill-rule:nonzero;fill:rgb(90.19928%,90.19928%,90.19928%);fill-opacity:1;" d="M 720.949219 90.585938 C 722.3125 90.585938 722.039062 93.835938 721.960938 95.921875 C 720.179688 95.921875 718.398438 95.921875 716.617188 95.921875 C 712.417969 95.921875 708.21875 95.921875 704.011719 95.921875 C 699.652344 95.921875 695.285156 95.921875 690.925781 95.921875 C 690.15625 95.921875 689.386719 95.921875 688.613281 95.921875 C 688.675781 95.132812 688.613281 94.324219 688.613281 93.550781 C 688.613281 92.585938 688.660156 91.679688 688.730469 90.738281 C 695.535156 89.910156 702.976562 90.738281 709.742188 90.738281 C 713.492188 90.738281 717.21875 90.585938 720.949219 90.585938 "/>
<path style=" stroke:none;fill-rule:nonzero;fill:rgb(70.199585%,70.199585%,70.199585%);fill-opacity:1;" d="M 724.890625 98.277344 C 725.148438 97.636719 725.28125 96.800781 725.28125 95.636719 C 725.28125 87.453125 724.210938 87.210938 716.191406 87.210938 C 706.835938 87.210938 696.542969 86.210938 687.25 87.566406 C 687.136719 87.550781 687.046875 87.503906 686.929688 87.503906 C 646.542969 87.621094 606.171875 87.941406 565.792969 88.164062 C 544.921875 88.261719 524.039062 88.375 503.179688 88.464844 C 500.441406 88.480469 494.125 87.398438 492.796875 90.363281 C 491.617188 93.027344 492.378906 102.820312 493.691406 105.332031 C 495.097656 108.023438 498.039062 107.304688 500.660156 107.289062 C 562.753906 106.878906 624.839844 106.363281 686.929688 106.027344 C 687.003906 106.027344 687.027344 105.992188 687.082031 105.992188 C 697.03125 107.8125 708.070312 106.578125 718.140625 106.578125 C 724.191406 106.578125 725.734375 103.816406 724.890625 98.277344 Z M 729.066406 92 C 731.226562 92 731.226562 88.632812 729.066406 88.632812 C 728.824219 88.632812 728.613281 88.632812 728.375 88.632812 C 726.210938 88.632812 726.210938 92 728.375 92 C 728.613281 92 728.824219 92 729.066406 92 Z M 733.546875 105.601562 C 735.71875 105.601562 735.71875 102.234375 733.546875 102.234375 C 732.839844 102.234375 732.15625 102.234375 731.449219 102.234375 C 729.285156 102.234375 729.285156 105.601562 731.449219 105.601562 C 732.15625 105.601562 732.839844 105.601562 733.546875 105.601562 Z M 734.015625 91.457031 C 734.707031 91.242188 735.230469 90.683594 735.230469 89.894531 C 735.230469 89.03125 734.449219 88.128906 733.546875 88.207031 C 733.058594 88.242188 732.695312 88.332031 732.289062 88.578125 C 730.402344 89.671875 732.101562 92.574219 733.964844 91.472656 C 733.980469 91.472656 734 91.457031 734.015625 91.457031 Z M 734.390625 101.019531 C 736.285156 102.050781 738.207031 99.136719 736.285156 98.105469 C 734.992188 97.421875 733.964844 97.601562 732.289062 97.601562 C 728.933594 97.601562 728.933594 100.972656 732.289062 100.972656 C 732.289062 100.972656 732.742188 100.972656 733.183594 100.972656 C 733.511719 100.972656 734.085938 100.851562 734.390625 101.019531 Z M 736.355469 96.207031 C 738.5 96.136719 738.515625 92.769531 736.355469 92.839844 C 734.621094 92.886719 732.890625 93.089844 731.164062 93.109375 C 728.992188 93.144531 728.992188 96.507812 731.164062 96.472656 C 732.890625 96.457031 734.621094 96.261719 736.355469 96.207031 Z M 741.511719 86.386719 C 741.511719 86.421875 741.511719 86.457031 741.511719 86.492188 C 741.300781 90.117188 740.050781 107.890625 735.453125 109.375 C 709.691406 112.585938 683.777344 110.03125 657.953125 109.746094 C 631.828125 109.472656 605.792969 108.796875 579.632812 108.832031 C 553.035156 108.851562 526.46875 109.488281 499.863281 109.640625 C 494.203125 109.675781 480.816406 112.25 478.25 104.84375 C 476.671875 100.265625 476.824219 94.421875 476.636719 89.628906 C 476.582031 88.261719 476.566406 86.894531 476.546875 85.550781 C 520.753906 85.589844 564.933594 85.820312 609.132812 85.820312 C 632.261719 85.820312 655.382812 85.820312 678.515625 85.820312 C 689.066406 85.820312 699.617188 85.820312 710.160156 85.820312 C 720.558594 85.820312 731.148438 86.832031 741.511719 86.386719 "/>
<path style=" stroke:none;fill-rule:nonzero;fill:rgb(79.998779%,79.998779%,79.998779%);fill-opacity:1;" d="M 741.714844 81.609375 C 741.699219 82.082031 741.679688 82.550781 741.664062 83.023438 C 732.199219 83.429688 722.617188 82.453125 713.136719 82.453125 C 702.671875 82.453125 692.195312 82.453125 681.722656 82.453125 C 658.636719 82.453125 635.558594 82.453125 612.460938 82.453125 C 567.167969 82.453125 521.863281 82.214844 476.546875 82.1875 C 476.546875 81.761719 476.546875 81.34375 476.566406 80.9375 C 485.601562 82.117188 495.699219 80.9375 504.691406 80.972656 C 528.277344 81.070312 551.847656 81.140625 575.433594 81.210938 C 624.574219 81.34375 673.730469 81.460938 722.863281 81.574219 C 729.144531 81.574219 735.433594 81.59375 741.714844 81.609375 "/>
<path style=" stroke:none;fill-rule:nonzero;fill:rgb(94.898987%,94.898987%,94.898987%);fill-opacity:1;" d="M 741.832031 59.839844 C 741.867188 65.964844 741.929688 72.117188 741.8125 78.246094 C 659.097656 78.140625 576.371094 77.953125 493.65625 77.554688 C 488.800781 77.535156 480.851562 78.023438 476.636719 77.589844 C 476.875 68.835938 477.511719 60.042969 477.683594 51.335938 C 477.777344 46.132812 477.851562 41.015625 478.160156 35.832031 C 478.285156 33.84375 478.0625 31.703125 478.0625 29.707031 C 478.0625 26.8125 485.371094 27.195312 487.300781 27.175781 C 500.359375 26.972656 513.597656 27.664062 526.714844 27.621094 C 554.230469 27.511719 581.765625 27.433594 609.300781 27.328125 C 636.886719 27.230469 664.472656 27.140625 692.050781 27.042969 C 704.5 26.988281 717 27.28125 729.445312 26.855469 C 739.261719 26.519531 740.707031 34.03125 740.644531 42.011719 C 740.574219 48.074219 741.796875 53.847656 741.832031 59.839844 "/>
<path style=" stroke:none;fill-rule:nonzero;fill:rgb(30.198669%,30.198669%,30.198669%);fill-opacity:1;" d="M 572.339844 91.742188 C 572.578125 92.539062 572.324219 93.277344 572.191406 94.066406 C 572.109375 94.589844 572.039062 95.097656 572.003906 95.601562 C 546.710938 95.71875 521.390625 95.851562 496.074219 95.921875 C 496.054688 94.894531 496.039062 93.878906 495.976562 92.976562 C 495.84375 90.738281 505.445312 91.828125 506.960938 91.8125 C 528.746094 91.714844 550.519531 91.589844 572.304688 91.457031 C 572.324219 91.546875 572.304688 91.644531 572.339844 91.742188 "/>
<path style=" stroke:none;fill-rule:nonzero;fill:rgb(30.198669%,30.198669%,30.198669%);fill-opacity:1;" d="M 643.265625 91.039062 C 643.265625 91.09375 643.257812 91.109375 643.257812 91.15625 C 643.238281 92.789062 642.964844 94.40625 642.867188 96.039062 C 625.734375 95.90625 608.566406 95.453125 591.554688 95.515625 C 586.152344 95.53125 580.757812 95.566406 575.351562 95.585938 C 575.378906 95.027344 575.519531 94.476562 575.636719 93.933594 C 575.804688 93.089844 575.847656 92.265625 575.699219 91.4375 C 598.226562 91.289062 620.753906 91.15625 643.265625 91.039062 "/>
<path style=" stroke:none;fill-rule:nonzero;fill:rgb(30.198669%,30.198669%,30.198669%);fill-opacity:1;" d="M 685.25 92.769531 C 685.25 93.480469 685.363281 94.34375 685.320312 95.113281 C 685.300781 95.160156 685.265625 95.210938 685.25 95.265625 C 672.3125 96.003906 659.28125 96.136719 646.222656 96.074219 C 646.3125 94.421875 646.597656 92.789062 646.613281 91.15625 C 646.613281 91.109375 646.597656 91.074219 646.597656 91.039062 C 659.496094 90.96875 672.421875 90.925781 685.335938 90.871094 C 685.285156 91.511719 685.25 92.132812 685.25 92.769531 "/>
<g clip-path="url(#clip2)" clip-rule="nonzero">
<path style=" stroke:none;fill-rule:nonzero;fill:rgb(0%,0%,0%);fill-opacity:1;" d="M 741.511719 86.492188 C 741.511719 86.457031 741.511719 86.421875 741.511719 86.386719 C 731.148438 86.832031 720.558594 85.820312 710.160156 85.820312 C 699.617188 85.820312 689.066406 85.820312 678.515625 85.820312 C 655.382812 85.820312 632.261719 85.820312 609.132812 85.820312 C 564.933594 85.820312 520.753906 85.589844 476.546875 85.550781 C 476.566406 86.894531 476.582031 88.261719 476.636719 89.628906 C 476.824219 94.421875 476.671875 100.265625 478.25 104.84375 C 480.816406 112.25 494.203125 109.675781 499.863281 109.640625 C 526.46875 109.488281 553.035156 108.851562 579.632812 108.832031 C 605.792969 108.796875 631.828125 109.472656 657.953125 109.746094 C 683.777344 110.03125 709.691406 112.585938 735.453125 109.375 C 740.050781 107.890625 741.300781 90.117188 741.511719 86.492188 Z M 741.664062 83.023438 C 741.679688 82.550781 741.699219 82.082031 741.714844 81.609375 C 735.433594 81.59375 729.144531 81.574219 722.863281 81.574219 C 673.730469 81.460938 624.574219 81.34375 575.433594 81.210938 C 551.847656 81.140625 528.277344 81.070312 504.691406 80.972656 C 495.699219 80.9375 485.601562 82.117188 476.566406 80.9375 C 476.546875 81.34375 476.546875 81.761719 476.546875 82.1875 C 521.863281 82.214844 567.167969 82.453125 612.460938 82.453125 C 635.558594 82.453125 658.636719 82.453125 681.722656 82.453125 C 692.195312 82.453125 702.671875 82.453125 713.136719 82.453125 C 722.617188 82.453125 732.199219 83.429688 741.664062 83.023438 Z M 741.8125 78.246094 C 741.929688 72.117188 741.867188 65.964844 741.832031 59.839844 C 741.796875 53.847656 740.574219 48.074219 740.644531 42.011719 C 740.707031 34.03125 739.261719 26.519531 729.445312 26.855469 C 717 27.28125 704.5 26.988281 692.050781 27.042969 C 664.472656 27.140625 636.886719 27.230469 609.300781 27.328125 C 581.765625 27.433594 554.230469 27.511719 526.714844 27.621094 C 513.597656 27.664062 500.359375 26.972656 487.300781 27.175781 C 485.371094 27.195312 478.0625 26.8125 478.0625 29.707031 C 478.0625 31.703125 478.285156 33.84375 478.160156 35.832031 C 477.851562 41.015625 477.777344 46.132812 477.683594 51.335938 C 477.511719 60.042969 476.875 68.835938 476.636719 77.589844 C 480.851562 78.023438 488.800781 77.535156 493.65625 77.554688 C 576.371094 77.953125 659.097656 78.140625 741.8125 78.246094 Z M 745.1875 65.734375 C 745.179688 72.617188 745.523438 79.621094 744.867188 86.492188 C 744.382812 91.546875 742.972656 96.457031 742.523438 101.5 C 742.070312 106.480469 741.609375 111.023438 736.300781 112.640625 C 736.167969 112.675781 736.070312 112.660156 735.9375 112.675781 C 735.921875 112.675781 735.902344 112.695312 735.867188 112.695312 C 719 114.84375 701.796875 114.96875 684.847656 113.6875 C 669.894531 112.550781 654.789062 112.890625 639.792969 112.402344 C 631.882812 112.171875 624.050781 113.148438 616.140625 112.808594 C 608.394531 112.472656 600.625 112.269531 592.847656 112.234375 C 576.558594 112.136719 560.265625 112.304688 543.964844 112.527344 C 530.296875 112.710938 516.636719 112.925781 502.957031 112.996094 C 497.234375 113.03125 491.554688 113.164062 485.839844 113.394531 C 483.371094 113.484375 479.914062 113.660156 478.117188 111.441406 C 473.394531 105.652344 473.359375 96.785156 473.277344 89.628906 C 473.261719 87.992188 473.3125 86.359375 473.324219 84.726562 C 473.023438 84.183594 473.023438 83.492188 473.339844 82.960938 C 473.492188 73.378906 474.085938 63.800781 474.261719 54.238281 C 474.386719 48.226562 475.121094 41.808594 474.800781 35.832031 C 474.6875 33.84375 473.785156 29.367188 475.042969 27.621094 C 479.039062 22.078125 487.488281 24.371094 493.183594 24.371094 C 519.707031 24.351562 546.25 24.183594 572.78125 24.09375 C 600.492188 23.996094 628.203125 23.890625 655.914062 23.792969 C 670.152344 23.738281 684.390625 23.695312 698.625 23.660156 C 710.035156 23.605469 721.890625 22.566406 733.246094 23.324219 C 739.5625 23.738281 743.089844 27.628906 743.691406 34.082031 C 744.691406 44.488281 745.207031 55.277344 745.1875 65.734375 "/>
</g>
<path style=" stroke:none;fill-rule:nonzero;fill:rgb(0%,0%,0%);fill-opacity:1;" d="M 736.355469 92.839844 C 738.515625 92.769531 738.5 96.136719 736.355469 96.207031 C 734.621094 96.261719 732.890625 96.457031 731.164062 96.472656 C 728.992188 96.507812 728.992188 93.144531 731.164062 93.109375 C 732.890625 93.089844 734.621094 92.886719 736.355469 92.839844 "/>
<path style=" stroke:none;fill-rule:nonzero;fill:rgb(0%,0%,0%);fill-opacity:1;" d="M 736.285156 98.105469 C 738.207031 99.136719 736.285156 102.050781 734.390625 101.019531 C 734.085938 100.851562 733.511719 100.972656 733.183594 100.972656 C 732.742188 100.972656 732.289062 100.972656 732.289062 100.972656 C 728.933594 100.972656 728.933594 97.601562 732.289062 97.601562 C 733.964844 97.601562 734.992188 97.421875 736.285156 98.105469 "/>
<path style=" stroke:none;fill-rule:nonzero;fill:rgb(0%,0%,0%);fill-opacity:1;" d="M 735.230469 89.894531 C 735.230469 90.683594 734.707031 91.242188 734.015625 91.457031 C 734 91.457031 733.980469 91.472656 733.964844 91.472656 C 732.101562 92.574219 730.402344 89.671875 732.289062 88.578125 C 732.695312 88.332031 733.058594 88.242188 733.546875 88.207031 C 734.449219 88.128906 735.230469 89.03125 735.230469 89.894531 "/>
<path style=" stroke:none;fill-rule:nonzero;fill:rgb(0%,0%,0%);fill-opacity:1;" d="M 733.546875 102.234375 C 735.71875 102.234375 735.71875 105.601562 733.546875 105.601562 C 732.839844 105.601562 732.15625 105.601562 731.449219 105.601562 C 729.285156 105.601562 729.285156 102.234375 731.449219 102.234375 C 732.15625 102.234375 732.839844 102.234375 733.546875 102.234375 "/>
<path style=" stroke:none;fill-rule:nonzero;fill:rgb(0%,0%,0%);fill-opacity:1;" d="M 729.066406 88.632812 C 731.226562 88.632812 731.226562 92 729.066406 92 C 728.824219 92 728.613281 92 728.375 92 C 726.210938 92 726.210938 88.632812 728.375 88.632812 C 728.613281 88.632812 728.824219 88.632812 729.066406 88.632812 "/>
<path style=" stroke:none;fill-rule:nonzero;fill:rgb(0%,0%,0%);fill-opacity:1;" d="M 572.191406 94.066406 C 572.324219 93.277344 572.578125 92.539062 572.339844 91.742188 C 572.304688 91.644531 572.324219 91.546875 572.304688 91.457031 C 550.519531 91.589844 528.746094 91.714844 506.960938 91.8125 C 505.445312 91.828125 495.84375 90.738281 495.976562 92.976562 C 496.039062 93.878906 496.054688 94.894531 496.074219 95.921875 C 521.390625 95.851562 546.710938 95.71875 572.003906 95.601562 C 572.039062 95.097656 572.109375 94.589844 572.191406 94.066406 Z M 643.257812 91.15625 C 643.257812 91.109375 643.265625 91.09375 643.265625 91.039062 C 620.753906 91.15625 598.226562 91.289062 575.699219 91.4375 C 575.847656 92.265625 575.804688 93.089844 575.636719 93.933594 C 575.519531 94.476562 575.378906 95.027344 575.351562 95.585938 C 580.757812 95.566406 586.152344 95.53125 591.554688 95.515625 C 608.566406 95.453125 625.734375 95.90625 642.867188 96.039062 C 642.964844 94.40625 643.238281 92.789062 643.257812 91.15625 Z M 685.320312 95.113281 C 685.363281 94.34375 685.25 93.480469 685.25 92.769531 C 685.25 92.132812 685.285156 91.511719 685.335938 90.871094 C 672.421875 90.925781 659.496094 90.96875 646.597656 91.039062 C 646.597656 91.074219 646.613281 91.109375 646.613281 91.15625 C 646.597656 92.789062 646.3125 94.421875 646.222656 96.074219 C 659.28125 96.136719 672.3125 96.003906 685.25 95.265625 C 685.265625 95.210938 685.300781 95.160156 685.320312 95.113281 Z M 686.046875 102.652344 C 685.992188 102.136719 685.839844 101.5625 685.699219 101.125 C 685.417969 100.300781 685.1875 99.527344 685.113281 98.648438 C 654.960938 100.335938 621.125 98.765625 589.863281 98.898438 C 558.679688 99.019531 527.503906 99.191406 496.320312 99.289062 C 496.730469 101.878906 497.792969 103.941406 500.839844 103.921875 C 502.503906 103.90625 504.171875 103.886719 505.816406 103.886719 C 526.023438 103.753906 546.214844 103.621094 566.429688 103.460938 C 606.296875 103.195312 646.179688 102.875 686.046875 102.652344 Z M 721.570312 100.023438 C 720.214844 100.042969 718.550781 99.847656 716.617188 99.847656 C 707.546875 99.847656 697.953125 100.71875 688.84375 99.960938 C 688.878906 100.042969 688.914062 100.148438 688.941406 100.230469 C 689.066406 100.671875 689.085938 101.144531 689.199219 101.578125 C 689.332031 102.050781 689.421875 102.5 689.421875 102.953125 C 695.402344 103.78125 701.949219 103.210938 707.890625 103.210938 C 712.738281 103.210938 721.136719 105.539062 721.570312 100.023438 Z M 721.960938 95.921875 C 722.039062 93.835938 722.3125 90.585938 720.949219 90.585938 C 717.21875 90.585938 713.492188 90.738281 709.742188 90.738281 C 702.976562 90.738281 695.535156 89.910156 688.730469 90.738281 C 688.660156 91.679688 688.613281 92.585938 688.613281 93.550781 C 688.613281 94.324219 688.675781 95.132812 688.613281 95.921875 C 689.386719 95.921875 690.15625 95.921875 690.925781 95.921875 C 695.285156 95.921875 699.652344 95.921875 704.011719 95.921875 C 708.21875 95.921875 712.417969 95.921875 716.617188 95.921875 C 718.398438 95.921875 720.179688 95.921875 721.960938 95.921875 Z M 725.28125 95.636719 C 725.28125 96.800781 725.148438 97.636719 724.890625 98.277344 C 725.734375 103.816406 724.191406 106.578125 718.140625 106.578125 C 708.070312 106.578125 697.03125 107.8125 687.082031 105.992188 C 687.027344 105.992188 687.003906 106.027344 686.929688 106.027344 C 624.839844 106.363281 562.753906 106.878906 500.660156 107.289062 C 498.039062 107.304688 495.097656 108.023438 493.691406 105.332031 C 492.378906 102.820312 491.617188 93.027344 492.796875 90.363281 C 494.125 87.398438 500.441406 88.480469 503.179688 88.464844 C 524.039062 88.375 544.921875 88.261719 565.792969 88.164062 C 606.171875 87.941406 646.542969 87.621094 686.929688 87.503906 C 687.046875 87.503906 687.136719 87.550781 687.25 87.566406 C 696.542969 86.210938 706.835938 87.210938 716.191406 87.210938 C 724.210938 87.210938 725.28125 87.453125 725.28125 95.636719 "/>
<path style=" stroke:none;fill-rule:nonzero;fill:rgb(79.998779%,79.998779%,79.998779%);fill-opacity:1;" d="M 730.988281 75.207031 C 732.714844 73.964844 734.390625 72.582031 736.472656 72.011719 C 738.550781 71.433594 737.667969 68.1875 735.574219 68.761719 C 733.183594 69.421875 731.28125 70.867188 729.296875 72.296875 C 727.550781 73.558594 729.222656 76.480469 730.988281 75.207031 "/>
<path style=" stroke:none;fill-rule:nonzero;fill:rgb(79.998779%,79.998779%,79.998779%);fill-opacity:1;" d="M 725.167969 74.097656 C 727.894531 71.648438 730.632812 69.242188 733.785156 67.351562 C 735.648438 66.242188 733.953125 63.320312 732.09375 64.4375 C 728.691406 66.480469 725.726562 69.074219 722.792969 71.71875 C 721.179688 73.175781 723.5625 75.546875 725.167969 74.097656 "/>
<path style=" stroke:none;fill-rule:nonzero;fill:rgb(79.998779%,79.998779%,79.998779%);fill-opacity:1;" d="M 723.207031 68.773438 C 723.972656 68.007812 724.707031 67.296875 725.671875 66.792969 C 727.585938 65.769531 725.894531 62.867188 723.972656 63.878906 C 722.773438 64.519531 721.78125 65.433594 720.835938 66.390625 C 719.300781 67.929688 721.675781 70.308594 723.207031 68.773438 "/>
<path style=" stroke:none;fill-rule:nonzero;fill:rgb(79.998779%,79.998779%,79.998779%);fill-opacity:1;" d="M 479.550781 74.3125 C 480.640625 74.347656 481.492188 74.855469 482.339844 75.484375 C 483.085938 76.035156 484.210938 75.617188 484.636719 74.878906 C 485.140625 74.027344 484.777344 73.121094 484.042969 72.582031 C 482.695312 71.59375 481.226562 70.992188 479.550781 70.945312 C 477.378906 70.886719 477.390625 74.257812 479.550781 74.3125 "/>
<path style=" stroke:none;fill-rule:nonzero;fill:rgb(79.998779%,79.998779%,79.998779%);fill-opacity:1;" d="M 480.660156 69.597656 C 483.769531 71.300781 487.363281 72.191406 490.183594 74.367188 C 491.902344 75.6875 493.566406 72.765625 491.882812 71.453125 C 489.046875 69.269531 485.476562 68.40625 482.359375 66.683594 C 480.453125 65.636719 478.761719 68.550781 480.660156 69.597656 "/>
<path style=" stroke:none;fill-rule:nonzero;fill:rgb(79.998779%,79.998779%,79.998779%);fill-opacity:1;" d="M 484.59375 65.609375 C 485.539062 65.65625 486.265625 66.027344 487.046875 66.542969 C 487.96875 67.15625 488.96875 67.609375 489.898438 68.195312 C 491.75 69.339844 493.433594 66.429688 491.597656 65.28125 C 490.546875 64.625 489.4375 64.101562 488.402344 63.410156 C 487.265625 62.65625 485.945312 62.300781 484.59375 62.246094 C 482.421875 62.15625 482.429688 65.53125 484.59375 65.609375 "/>
<path style=" stroke:none;fill-rule:nonzero;fill:rgb(79.998779%,79.998779%,79.998779%);fill-opacity:1;" d="M 488.507812 61.402344 C 489.941406 61.445312 491.246094 62.210938 492.546875 62.753906 C 493.398438 63.097656 494.390625 62.378906 494.609375 61.570312 C 494.878906 60.605469 494.285156 59.847656 493.441406 59.503906 C 491.804688 58.828125 490.316406 58.089844 488.507812 58.039062 C 486.347656 57.976562 486.355469 61.339844 488.507812 61.402344 "/>
<path style=" stroke:none;fill-rule:nonzero;fill:rgb(79.998779%,79.998779%,79.998779%);fill-opacity:1;" d="M 484.867188 32.785156 C 484.867188 32.785156 498.449219 32.574219 505.171875 32.503906 C 507.332031 32.484375 507.269531 29.109375 505.101562 29.136719 C 498.375 29.199219 491.589844 29.414062 484.867188 29.414062 C 483.191406 29.414062 483.191406 32.785156 484.867188 32.785156 C 484.867188 32.785156 483.191406 32.785156 484.867188 32.785156 "/>
<path style=" stroke:none;fill-rule:nonzero;fill:rgb(79.998779%,79.998779%,79.998779%);fill-opacity:1;" d="M 511.746094 33.628906 C 511.746094 33.628906 535.539062 33.347656 547.242188 33.347656 C 559.75 33.347656 573.164062 31.792969 585.574219 33.566406 C 587.691406 33.871094 588.703125 30.628906 586.566406 30.320312 C 575.796875 28.773438 564.339844 29.980469 553.488281 29.980469 C 539.6875 29.980469 526.867188 30.257812 511.746094 30.257812 C 510.070312 30.257812 510.070312 33.628906 511.746094 33.628906 C 511.746094 33.628906 510.070312 33.628906 511.746094 33.628906 "/>
<path style=" stroke:none;fill-rule:nonzero;fill:rgb(79.998779%,79.998779%,79.998779%);fill-opacity:1;" d="M 590.703125 33.628906 C 590.703125 33.628906 594.070312 33.628906 595.746094 33.628906 C 597.429688 33.628906 597.429688 30.257812 595.746094 30.257812 C 594.070312 30.257812 592.386719 30.257812 590.703125 30.257812 C 589.023438 30.257812 589.023438 33.628906 590.703125 33.628906 C 590.703125 33.628906 589.023438 33.628906 590.703125 33.628906 "/>
<path style=" stroke:none;fill-rule:nonzero;fill:rgb(79.998779%,79.998779%,79.998779%);fill-opacity:1;" d="M 609.183594 33.347656 C 609.183594 33.347656 648.261719 32.503906 667.980469 32.503906 C 670.152344 32.503906 670.152344 29.136719 667.980469 29.136719 C 648.253906 29.136719 629.347656 29.980469 609.183594 29.980469 C 607.511719 29.980469 607.511719 33.347656 609.183594 33.347656 C 609.183594 33.347656 607.511719 33.347656 609.183594 33.347656 "/>
<path style=" stroke:none;fill-rule:nonzero;fill:rgb(79.998779%,79.998779%,79.998779%);fill-opacity:1;" d="M 676.390625 31.945312 C 676.390625 31.945312 679.277344 31.945312 680.304688 31.945312 C 681.339844 31.945312 682.351562 32.46875 683.378906 32.503906 C 685.550781 32.582031 685.539062 29.359375 683.378906 29.28125 C 682.492188 29.246094 681.191406 29.148438 680.304688 29.074219 C 679.144531 28.988281 678.0625 29.136719 676.390625 29.136719 C 674.707031 29.136719 674.707031 31.945312 676.390625 31.945312 C 676.390625 31.945312 674.707031 31.945312 676.390625 31.945312 "/>
<path style=" stroke:none;fill-rule:nonzero;fill:rgb(93.328857%,87.059021%,76.858521%);fill-opacity:1;" d="M 622.515625 645.03125 C 620.835938 643.628906 618.597656 643.070312 615.519531 643.351562 C 613.839844 643.351562 612.160156 643.628906 610.761719 644.75 C 607.964844 646.710938 608.523438 650.910156 609.363281 654.269531 C 611.042969 661.546875 625.871094 715.300781 631.1875 712.503906 C 632.585938 711.664062 628.109375 668.546875 627.828125 665.746094 C 626.992188 657.910156 628.390625 673.308594 627.550781 665.746094 C 626.429688 658.75 627.550781 648.949219 622.515625 645.03125 Z M 622.515625 645.03125 "/>
<path style=" stroke:none;fill-rule:nonzero;fill:rgb(93.328857%,87.059021%,76.858521%);fill-opacity:1;" d="M 181.019531 639.429688 C 182.699219 638.03125 184.9375 637.46875 188.011719 637.75 C 189.691406 637.75 191.371094 638.03125 192.769531 639.152344 C 195.566406 641.109375 195.007812 645.308594 194.167969 648.667969 C 192.488281 655.949219 177.660156 709.703125 172.34375 706.902344 C 170.945312 706.0625 175.421875 662.949219 175.703125 660.148438 C 176.542969 652.308594 175.144531 667.707031 175.984375 660.148438 C 177.382812 653.148438 176.261719 643.351562 181.019531 639.429688 Z M 181.019531 639.429688 "/>
<path style=" stroke:none;fill-rule:nonzero;fill:rgb(74.119568%,79.998779%,83.139038%);fill-opacity:1;" d="M 635.664062 561.039062 C 632.027344 556.558594 628.390625 552.359375 625.589844 547.878906 C 623.632812 546.480469 621.953125 544.800781 619.996094 543.121094 C 611.042969 533.882812 607.964844 521.84375 606.566406 509.523438 C 605.167969 494.6875 606.285156 479.007812 604.046875 465.007812 C 597.894531 427.492188 572.992188 427.492188 541.378906 426.652344 C 468.355469 424.414062 395.332031 422.171875 322.027344 419.933594 C 282.019531 418.8125 241.730469 416.574219 201.722656 416.015625 C 173.746094 415.453125 152.761719 424.414062 151.082031 458.289062 C 150.242188 475.648438 149.125 493.007812 148.285156 510.363281 C 148.003906 515.402344 147.726562 520.722656 145.765625 525.484375 C 143.25 531.640625 137.933594 536.121094 133.175781 540.601562 C 113.03125 560.199219 93.445312 602.472656 110.234375 626.832031 C 119.1875 639.710938 136.535156 644.75 154.160156 647.550781 L 153.601562 647.550781 C 160.035156 648.667969 165.910156 649.507812 171.785156 649.789062 C 177.660156 650.347656 183.257812 651.1875 188.292969 652.027344 C 222.148438 658.1875 257.121094 656.230469 291.253906 654.269531 C 294.890625 653.988281 298.527344 653.988281 302.164062 653.707031 C 313.914062 655.667969 325.386719 657.070312 336.296875 657.347656 C 385.257812 659.027344 434.5 658.46875 483.460938 657.070312 C 508.082031 656.507812 532.703125 655.667969 557.324219 655.109375 C 567.957031 654.828125 620.277344 660.148438 626.429688 653.429688 C 627.550781 652.027344 628.667969 650.910156 629.507812 649.507812 C 638.460938 637.191406 643.777344 621.511719 646.015625 606.394531 C 648.8125 589.035156 646.574219 574.476562 635.664062 561.039062 Z M 635.664062 561.039062 "/>
<path style=" stroke:none;fill-rule:nonzero;fill:rgb(52.549744%,66.668701%,54.119873%);fill-opacity:1;" d="M 80.855469 640.269531 C 74.140625 640.550781 66.027344 645.03125 60.152344 647.828125 C 58.753906 648.390625 57.636719 648.949219 56.796875 649.789062 C 56.796875 643.351562 56.515625 637.191406 56.234375 630.75 C 60.992188 625.992188 64.910156 620.953125 68.546875 615.074219 C 73.863281 608.355469 78.058594 601.355469 78.617188 595.476562 C 78.898438 594.636719 79.457031 593.515625 79.738281 592.675781 C 80.578125 590.4375 78.617188 588.195312 76.660156 587.636719 C 75.542969 587.355469 74.140625 587.074219 73.023438 587.074219 C 65.46875 583.996094 60.433594 590.15625 56.515625 596.316406 C 56.234375 596.875 55.675781 597.714844 55.398438 598.273438 C 54.835938 599.113281 54.277344 599.953125 53.71875 601.074219 C 53.4375 593.234375 53.71875 585.675781 53.4375 577.277344 C 53.4375 571.117188 52.597656 565.238281 49.800781 560.480469 C 46.445312 552.640625 36.652344 546.199219 30.777344 554.597656 C 24.339844 563.839844 26.300781 577.277344 29.097656 589.875 C 29.097656 593.234375 29.378906 596.875 29.9375 600.234375 C 30.214844 602.472656 30.777344 604.714844 31.054688 606.953125 C 26.019531 602.472656 19.863281 599.113281 11.472656 596.59375 C 8.394531 595.753906 4.195312 599.113281 6.433594 602.753906 C 11.75 610.875 18.1875 614.511719 26.019531 619.550781 C 28.816406 621.230469 31.894531 624.03125 35.253906 626.273438 C 36.652344 632.710938 38.050781 639.148438 38.609375 645.589844 C 39.167969 649.789062 39.730469 653.707031 40.289062 657.628906 C 37.769531 655.667969 34.972656 653.707031 32.453125 651.75 C 26.019531 646.429688 15.386719 635.511719 6.15625 641.671875 C 0 645.871094 1.398438 654.828125 6.714844 659.308594 C 12.308594 663.789062 19.863281 664.628906 26.578125 667.148438 C 27.417969 667.707031 27.976562 668.265625 28.816406 668.828125 C 32.734375 673.027344 36.371094 677.507812 41.6875 680.027344 C 42.246094 680.304688 43.085938 680.304688 43.925781 680.304688 C 44.765625 685.90625 45.882812 691.503906 46.722656 696.824219 C 46.445312 706.625 43.925781 719.78125 48.960938 725.660156 C 49.242188 725.941406 49.242188 725.941406 49.519531 726.222656 C 49.519531 727.339844 49.519531 728.460938 49.519531 729.582031 C 49.519531 734.898438 58.472656 734.898438 58.472656 729.582031 C 58.472656 728.460938 58.472656 727.0625 58.472656 725.941406 C 60.433594 724.542969 62.113281 722.300781 63.511719 720.621094 C 66.308594 717.261719 62.113281 714.183594 58.472656 714.742188 C 58.472656 702.144531 58.753906 689.546875 57.914062 676.945312 C 63.511719 673.027344 68.828125 669.105469 73.863281 664.628906 C 80.578125 662.109375 87.292969 659.589844 90.089844 652.589844 C 93.445312 645.308594 88.132812 639.992188 80.855469 640.269531 Z M 80.855469 640.269531 "/>
<path style=" stroke:none;fill-rule:nonzero;fill:rgb(21.569824%,41.958618%,58.039856%);fill-opacity:1;" d="M 92.886719 715.863281 C 80.296875 716.703125 67.425781 717.261719 54.835938 717.820312 C 47.84375 718.101562 40.847656 717.820312 33.574219 717.542969 C 30.214844 717.261719 26.578125 717.261719 22.941406 717.542969 C 22.664062 717.542969 20.425781 717.820312 19.585938 717.820312 C 19.023438 717.820312 18.464844 718.101562 17.90625 718.382812 C 20.703125 730.699219 24.339844 741.339844 33.574219 750.859375 C 38.332031 755.898438 43.085938 758.699219 49.800781 758.136719 C 57.074219 757.578125 64.910156 756.738281 71.34375 753.660156 C 83.375 747.777344 94.847656 730.980469 92.886719 715.863281 Z M 92.886719 715.863281 "/>
<path style=" stroke:none;fill-rule:nonzero;fill:rgb(80.778503%,34.899902%,13.729858%);fill-opacity:1;" d="M 330.140625 330.34375 C 330.703125 328.382812 328.742188 326.144531 326.226562 325.582031 C 323.707031 325.023438 321.46875 326.421875 320.628906 328.101562 C 319.789062 329.785156 320.070312 332.304688 321.1875 334.261719 C 321.46875 335.101562 322.027344 335.664062 322.867188 336.222656 C 325.105469 337.621094 328.183594 337.0625 329.582031 335.382812 C 330.980469 333.703125 330.980469 331.183594 331.261719 329.222656 Z M 330.140625 330.34375 "/>
<path style=" stroke:none;fill-rule:nonzero;fill:rgb(80.778503%,34.899902%,13.729858%);fill-opacity:1;" d="M 292.652344 329.222656 C 302.164062 324.742188 310.277344 321.382812 320.910156 328.941406 C 331.542969 336.503906 329.863281 350.222656 327.625 360.859375 C 327.066406 364.21875 325.105469 367.859375 321.75 369.539062 C 320.910156 370.097656 319.789062 370.378906 318.671875 370.378906 C 315.875 370.660156 313.914062 372.617188 313.636719 375.136719 L 311.957031 391.9375 C 311.957031 391.9375 281.738281 389.136719 281.738281 389.136719 C 282.300781 382.417969 283.140625 375.699219 283.699219 369.257812 C 283.976562 365.621094 285.097656 361.699219 283.699219 358.058594 C 282.019531 353.300781 277.824219 352.460938 278.382812 346.300781 C 278.941406 339.582031 283.699219 333.144531 290.414062 330.0625 C 291.253906 329.785156 292.09375 329.503906 292.652344 329.222656 Z M 292.652344 329.222656 "/>
<path style=" stroke:none;fill-rule:nonzero;fill:rgb(21.569824%,41.958618%,58.039856%);fill-opacity:1;" d="M 278.664062 330.625 C 278.941406 329.785156 279.5 328.664062 279.78125 328.101562 C 287.054688 312.984375 299.925781 318.023438 315.3125 319.144531 C 322.589844 319.703125 346.929688 318.585938 336.855469 332.304688 C 332.101562 338.742188 323.148438 336.503906 315.875 336.503906 C 304.121094 336.503906 306.359375 342.660156 304.402344 351.0625 C 304.402344 351.621094 304.121094 352.179688 303.5625 352.742188 C 302.164062 353.859375 299.925781 352.179688 299.085938 350.5 C 298.246094 349.101562 297.128906 347.421875 296.289062 346.023438 C 294.890625 343.78125 292.929688 341.261719 290.414062 341.542969 C 287.617188 341.820312 286.214844 344.621094 286.777344 347.140625 C 287.054688 349.660156 288.734375 351.621094 289.574219 354.140625 C 290.414062 356.378906 290.691406 359.460938 288.734375 361.140625 C 280.621094 367.859375 278.101562 354.980469 277.824219 351.0625 C 276.984375 344.902344 276.425781 336.503906 278.664062 330.625 Z M 278.664062 330.625 "/>
<path style=" stroke:none;fill-rule:nonzero;fill:rgb(93.328857%,87.059021%,76.858521%);fill-opacity:1;" d="M 400.648438 500.84375 C 395.609375 483.765625 384.417969 469.207031 376.867188 452.96875 C 372.109375 445.691406 367.351562 438.410156 362.875 430.574219 C 361.476562 428.332031 360.359375 426.09375 359.238281 423.574219 C 358.960938 423.292969 358.960938 422.734375 358.679688 422.453125 C 357.5625 420.214844 356.441406 417.695312 355.324219 415.453125 C 354.203125 412.65625 352.804688 409.855469 351.683594 407.054688 C 350.566406 404.253906 349.167969 401.175781 348.046875 398.375 C 348.046875 398.375 348.046875 398.097656 348.046875 398.097656 C 344.132812 388.015625 344.410156 386.058594 333.78125 385.496094 C 322.867188 384.65625 311.398438 386.335938 300.484375 387.457031 C 279.222656 389.695312 257.957031 394.175781 237.253906 400.617188 C 235.574219 401.175781 233.898438 401.734375 232.5 403.136719 C 231.097656 407.894531 229.980469 412.65625 229.699219 417.695312 C 229.140625 431.691406 231.097656 445.410156 232.21875 459.410156 C 233.335938 466.410156 235.015625 473.40625 236.136719 479.847656 C 240.890625 503.363281 245.929688 527.164062 256.558594 549 C 266.632812 569.4375 280.0625 587.355469 298.527344 600.515625 C 318.949219 600.234375 346.089844 590.15625 363.996094 586.515625 C 375.1875 583.996094 383.859375 580.078125 390.574219 574.757812 C 394.210938 562.160156 399.808594 550.121094 405.125 538.082031 C 405.683594 535 405.964844 531.921875 406.242188 528.84375 C 405.402344 519.601562 403.726562 510.363281 400.648438 500.84375 Z M 400.648438 500.84375 "/>
<path style=" stroke:none;fill-rule:nonzero;fill:rgb(93.328857%,87.059021%,76.858521%);fill-opacity:1;" d="M 189.972656 531.921875 C 183.257812 528.003906 179.898438 509.523438 178.222656 503.363281 C 174.304688 489.367188 171.507812 475.648438 169.269531 461.648438 C 167.867188 452.410156 164.230469 431.414062 172.90625 424.691406 C 186.054688 414.054688 199.765625 434.492188 200.882812 445.972656 C 201.441406 450.449219 201.441406 454.648438 201.164062 459.128906 C 201.164062 463.890625 201.164062 468.648438 200.882812 473.40625 C 200.601562 484.605469 200.601562 495.527344 200.324219 506.722656 C 200.601562 511.203125 200.601562 538.082031 189.972656 531.921875 Z M 189.972656 531.921875 "/>
<path style=" stroke:none;fill-rule:nonzero;fill:rgb(93.328857%,87.059021%,76.858521%);fill-opacity:1;" d="M 294.890625 393.617188 C 289.574219 390.816406 283.140625 390.816406 276.984375 391.097656 C 259.078125 391.9375 236.976562 397.816406 219.628906 403.136719 C 210.117188 405.933594 200.601562 409.855469 191.929688 414.613281 C 185.214844 418.253906 173.183594 424.414062 170.105469 431.691406 C 167.589844 437.570312 172.066406 445.410156 174.863281 450.449219 C 175.703125 452.128906 176.820312 453.808594 178.5 454.648438 C 183.535156 457.730469 193.609375 453.53125 199.484375 452.691406 C 204.242188 451.851562 208.4375 450.730469 212.914062 449.332031 C 222.707031 446.25 232.777344 443.730469 242.289062 439.53125 C 250.964844 435.613281 262.996094 428.332031 271.949219 425.253906 C 282.859375 417.414062 292.929688 409.292969 302.722656 400.335938 C 301.324219 397.816406 299.085938 395.578125 294.890625 393.617188 Z M 280.902344 401.457031 C 283.976562 401.457031 286.777344 401.175781 289.855469 400.894531 C 284.816406 402.296875 279.78125 404.253906 280.902344 401.457031 Z M 280.902344 401.457031 "/>
<path style=" stroke:none;fill-rule:nonzero;fill:rgb(80.778503%,34.899902%,13.729858%);fill-opacity:1;" d="M 186.054688 523.242188 C 185.773438 524.082031 185.773438 525.203125 186.335938 526.601562 C 186.894531 531.363281 190.8125 536.679688 193.609375 540.039062 C 194.726562 541.441406 196.40625 542.5625 198.085938 542.5625 C 198.925781 542.5625 199.484375 542 200.042969 541.441406 C 200.042969 541.441406 200.324219 541.441406 200.324219 541.441406 C 201.441406 540.878906 201.722656 539.480469 202.003906 538.082031 C 202.5625 532.480469 200.601562 526.601562 198.644531 521.28125 C 194.449219 522.402344 190.53125 523.523438 186.054688 523.242188 Z M 186.054688 523.242188 "/>
<path style=" stroke:none;fill-rule:nonzero;fill:rgb(93.328857%,87.059021%,76.858521%);fill-opacity:1;" d="M 368.191406 402.296875 C 362.597656 405.375 366.792969 420.773438 367.632812 425.8125 C 369.589844 437.292969 372.390625 449.050781 376.027344 460.53125 C 378.542969 468.089844 383.859375 485.726562 396.171875 491.605469 C 415.476562 500.84375 421.628906 484.046875 417.992188 474.527344 C 416.59375 470.886719 414.636719 467.25 412.679688 463.609375 C 410.441406 459.6875 408.480469 455.769531 406.242188 451.570312 C 401.207031 442.332031 396.171875 433.09375 391.132812 423.851562 C 388.894531 419.652344 377.425781 397.257812 368.191406 402.296875 Z M 368.191406 402.296875 "/>
<path style=" stroke:none;fill-rule:nonzero;fill:rgb(80.778503%,34.899902%,13.729858%);fill-opacity:1;" d="M 362.039062 410.976562 C 362.597656 414.335938 363.996094 418.8125 369.3125 417.972656 C 370.992188 417.695312 371.828125 417.132812 373.230469 416.574219 C 374.628906 416.015625 375.746094 416.015625 376.867188 415.175781 C 378.542969 414.054688 379.382812 412.65625 378.824219 411.253906 C 378.542969 410.414062 378.265625 409.574219 377.707031 409.015625 C 377.144531 407.054688 375.46875 405.375 374.90625 403.414062 C 374.90625 403.136719 374.628906 403.136719 374.628906 402.855469 C 375.1875 400.617188 374.628906 398.097656 372.949219 396.695312 C 372.667969 396.695312 372.667969 396.417969 372.390625 396.417969 C 369.3125 394.457031 361.757812 396.417969 360.636719 399.777344 C 360.636719 399.777344 360.636719 400.054688 360.636719 400.054688 C 358.960938 403.695312 361.476562 407.613281 362.039062 410.976562 Z M 362.039062 410.976562 "/>
<path style=" stroke:none;fill-rule:nonzero;fill:rgb(74.119568%,79.998779%,83.139038%);fill-opacity:1;" d="M 364.277344 430.574219 C 363.15625 428.054688 362.316406 425.8125 361.199219 423.292969 C 361.476562 423.011719 362.039062 422.453125 362.316406 421.894531 C 362.316406 421.613281 362.316406 421.613281 362.597656 421.332031 C 363.15625 419.652344 362.597656 418.535156 361.476562 417.972656 C 353.921875 399.496094 346.089844 380.738281 338.816406 361.980469 C 339.375 360.578125 339.09375 359.179688 337.417969 358.058594 C 336.019531 355.261719 331.820312 355.820312 330.980469 358.058594 C 327.902344 358.621094 324.828125 359.460938 322.308594 361.140625 C 319.511719 363.378906 322.308594 366.738281 324.828125 366.738281 C 325.664062 366.738281 326.226562 366.460938 327.066406 365.898438 C 327.066406 365.898438 328.183594 365.339844 328.464844 365.339844 C 329.304688 365.058594 329.863281 364.78125 330.703125 364.5 C 331.261719 364.21875 331.820312 364.21875 332.378906 364.21875 C 339.65625 383.539062 348.046875 402.855469 355.601562 421.894531 C 356.441406 423.574219 358.121094 424.414062 359.800781 424.132812 C 360.917969 426.371094 361.757812 428.894531 362.875 431.132812 C 362.875 431.972656 364.554688 431.414062 364.277344 430.574219 Z M 364.277344 430.574219 "/>
<path style=" stroke:none;fill-rule:nonzero;fill:rgb(80.778503%,34.899902%,13.729858%);fill-opacity:1;" d="M 328.183594 392.777344 C 327.625 391.9375 327.34375 390.816406 327.625 389.976562 C 327.902344 388.855469 329.582031 388.015625 330.980469 387.738281 C 341.054688 384.65625 351.125 381.578125 361.199219 378.777344 C 365.675781 388.015625 367.351562 398.097656 369.03125 407.894531 C 370.429688 416.855469 372.109375 425.8125 373.507812 435.050781 C 373.789062 435.890625 373.789062 436.730469 373.507812 437.570312 C 373.230469 438.410156 372.109375 438.972656 371.269531 439.25 C 367.914062 440.929688 359.800781 444.570312 355.882812 442.609375 C 351.964844 440.929688 348.886719 431.132812 347.207031 427.492188 C 340.496094 416.015625 334.339844 404.535156 328.183594 392.777344 Z M 328.183594 392.777344 "/>
<path style=" stroke:none;fill-rule:nonzero;fill:rgb(74.119568%,79.998779%,83.139038%);fill-opacity:1;" d="M 326.226562 390.816406 C 326.503906 390.816406 326.785156 390.816406 327.34375 390.816406 C 339.09375 387.738281 350.007812 382.417969 362.039062 379.617188 C 362.316406 379.617188 362.316406 379.617188 362.597656 379.339844 C 362.597656 379.339844 362.597656 379.058594 362.597656 378.777344 C 362.597656 378.21875 362.316406 377.9375 362.316406 377.378906 C 362.316406 377.097656 362.039062 376.816406 361.757812 376.539062 C 361.476562 376.257812 360.917969 376.257812 360.636719 376.539062 C 349.445312 378.5 339.375 383.539062 329.023438 387.175781 C 328.183594 387.457031 325.945312 387.738281 325.664062 388.578125 C 324.828125 389.136719 325.386719 390.816406 326.226562 390.816406 Z M 326.226562 390.816406 "/>
<path style=" stroke:none;fill-rule:nonzero;fill:rgb(93.328857%,87.059021%,76.858521%);fill-opacity:1;" d="M 357.28125 401.457031 C 355.882812 400.054688 353.363281 399.777344 351.683594 400.617188 C 350.566406 401.175781 349.445312 402.296875 348.886719 403.695312 C 346.371094 406.214844 346.089844 411.253906 348.886719 413.496094 C 349.167969 414.335938 349.167969 414.894531 349.726562 415.453125 C 351.125 418.253906 354.761719 419.375 357.5625 417.972656 C 359.519531 416.855469 361.199219 414.894531 361.757812 412.65625 C 362.875 408.453125 362.597656 402.296875 357.28125 401.457031 Z M 357.28125 401.457031 "/>
<path style=" stroke:none;fill-rule:nonzero;fill:rgb(23.139954%,41.178894%,58.039856%);fill-opacity:1;" d="M 494.652344 667.148438 C 485.421875 644.75 476.46875 622.351562 467.234375 599.953125 C 459.960938 581.757812 451.289062 566.359375 437.859375 554.878906 C 430.863281 549 422.46875 544.242188 412.398438 540.878906 C 404.5625 538.359375 393.933594 534.441406 383.300781 531.921875 C 358.960938 538.082031 330.703125 545.921875 310.558594 560.199219 C 300.765625 568.316406 293.492188 578.117188 287.335938 589.035156 C 287.054688 589.875 286.777344 590.996094 286.496094 591.835938 C 286.496094 592.957031 286.214844 594.074219 285.65625 594.914062 C 285.378906 596.316406 285.097656 597.714844 284.816406 599.394531 C 289.855469 601.632812 294.890625 603.59375 300.207031 605.273438 C 310.558594 608.355469 322.027344 610.59375 332.378906 615.074219 C 333.78125 615.074219 334.898438 615.074219 336.296875 615.351562 C 352.246094 616.753906 374.347656 613.113281 384.140625 627.953125 C 388.617188 634.671875 390.296875 642.789062 393.09375 650.628906 C 399.527344 670.226562 411.839844 687.867188 428.34375 701.023438 C 429.746094 702.144531 431.421875 703.261719 433.101562 703.824219 C 434.78125 704.382812 436.738281 704.105469 438.417969 703.824219 C 442.894531 702.984375 447.371094 701.582031 451.566406 699.902344 C 445.414062 677.226562 435.898438 655.667969 424.988281 634.671875 C 416.875 618.992188 412.679688 602.753906 398.6875 591.554688 C 405.964844 587.914062 426.386719 592.117188 426.386719 592.117188 C 426.386719 592.117188 430.863281 614.792969 435.058594 622.632812 C 443.453125 638.03125 454.085938 652.867188 466.117188 666.027344 C 468.914062 669.105469 478.425781 681.425781 482.34375 682.265625 C 487.660156 683.386719 496.050781 678.347656 496.050781 672.46875 C 496.050781 672.46875 496.050781 672.46875 496.050781 672.1875 C 495.773438 669.945312 495.214844 668.546875 494.652344 667.148438 Z M 494.652344 667.148438 "/>
<path style=" stroke:none;fill-rule:nonzero;fill:rgb(93.328857%,87.059021%,76.858521%);fill-opacity:1;" d="M 451.566406 696.265625 C 450.449219 694.585938 449.890625 692.625 448.210938 691.226562 C 445.972656 689.265625 442.054688 689.265625 438.976562 690.664062 C 428.34375 695.425781 430.304688 706.902344 440.65625 710.542969 C 449.328125 713.621094 459.402344 715.300781 468.074219 711.101562 C 468.074219 707.183594 465.277344 704.664062 461.640625 702.984375 C 458.28125 701.304688 454.085938 700.183594 451.847656 697.105469 C 451.847656 696.824219 451.566406 696.542969 451.566406 696.265625 Z M 451.566406 696.265625 "/>
<path style=" stroke:none;fill-rule:nonzero;fill:rgb(93.328857%,87.059021%,76.858521%);fill-opacity:1;" d="M 479.265625 680.867188 C 486.539062 684.785156 499.410156 688.707031 507.242188 685.90625 C 505.566406 680.027344 498.289062 674.707031 492.976562 671.90625 C 487.378906 668.828125 475.910156 662.949219 473.671875 672.746094 C 473.390625 673.585938 473.390625 674.425781 473.671875 675.265625 C 474.507812 677.785156 477.027344 679.746094 479.265625 680.867188 Z M 479.265625 680.867188 "/>
<path style=" stroke:none;fill-rule:nonzero;fill:rgb(93.328857%,87.059021%,76.858521%);fill-opacity:1;" d="M 217.390625 536.402344 C 216.269531 536.402344 215.433594 536.402344 214.3125 536.402344 C 211.234375 536.121094 207.878906 535.839844 204.519531 536.121094 C 197.527344 537.242188 189.414062 537.800781 182.976562 540.878906 C 181.296875 541.722656 179.621094 544.242188 180.460938 546.199219 C 180.738281 546.480469 180.738281 546.761719 181.019531 547.039062 C 180.738281 547.601562 180.738281 548.160156 180.738281 548.71875 C 182.417969 564.398438 190.8125 577.277344 200.042969 589.316406 C 200.324219 590.15625 200.601562 590.714844 200.882812 591.554688 C 201.441406 592.675781 202.28125 593.234375 203.121094 593.515625 C 205.917969 597.15625 208.71875 600.792969 211.515625 604.433594 C 212.355469 605.554688 213.472656 605.832031 214.59375 605.832031 C 216.550781 607.515625 218.507812 608.632812 220.46875 608.914062 C 222.707031 609.195312 225.503906 606.675781 225.222656 604.152344 C 223.546875 593.796875 222.425781 585.957031 222.707031 575.316406 C 222.707031 564.117188 225.503906 551.238281 224.105469 540.039062 C 224.105469 539.480469 223.824219 538.921875 223.546875 538.640625 C 223.546875 538.359375 223.265625 538.082031 223.265625 537.800781 C 222.148438 535.28125 219.347656 535.28125 217.390625 536.402344 Z M 217.390625 536.402344 "/>
<path style=" stroke:none;fill-rule:nonzero;fill:rgb(94.509888%,75.689697%,0.779724%);fill-opacity:1;" d="M 216.832031 549.558594 C 214.871094 549.558594 200.324219 551.800781 197.246094 552.359375 C 196.964844 552.359375 196.964844 552.359375 196.6875 552.359375 C 196.6875 552.359375 196.40625 552.359375 196.40625 552.359375 C 194.449219 550.679688 191.929688 551.519531 190.25 552.917969 C 187.734375 553.757812 185.214844 555.160156 184.375 558.238281 C 182.417969 564.957031 188.574219 575.878906 191.929688 581.195312 C 196.40625 588.195312 202.28125 593.234375 208.4375 598.273438 C 210.117188 601.074219 212.074219 603.3125 215.152344 604.152344 C 217.949219 604.992188 219.910156 603.035156 220.746094 600.792969 C 220.746094 600.234375 221.027344 599.953125 221.027344 599.394531 C 222.984375 595.195312 222.984375 589.59375 223.265625 585.117188 C 223.824219 579.796875 223.546875 573.917969 223.546875 568.316406 C 223.546875 564.398438 224.664062 560.199219 224.386719 556.277344 C 224.386719 550.679688 221.585938 549.839844 216.832031 549.558594 Z M 210.394531 576.996094 C 210.394531 577.277344 210.394531 577.558594 210.394531 577.835938 C 210.117188 576.996094 209.835938 575.878906 209.554688 575.039062 C 210.117188 574.199219 210.675781 573.355469 210.957031 572.238281 C 210.957031 572.238281 210.957031 572.238281 211.234375 572.238281 C 210.675781 574.199219 210.394531 575.878906 210.394531 576.996094 Z M 210.394531 576.996094 "/>
<path style=" stroke:none;fill-rule:nonzero;fill:rgb(94.509888%,75.689697%,0.779724%);fill-opacity:1;" d="M 197.246094 563.277344 C 196.40625 563.558594 195.566406 564.117188 195.007812 564.679688 C 191.929688 568.878906 193.050781 575.316406 194.167969 580.078125 C 194.449219 581.476562 196.40625 582.316406 197.804688 582.316406 C 198.925781 582.316406 199.765625 581.757812 200.324219 581.195312 C 200.882812 580.917969 201.164062 580.917969 201.722656 580.355469 C 203.960938 578.957031 204.519531 575.878906 202.839844 573.636719 C 202.839844 573.078125 202.839844 572.238281 202.839844 571.675781 C 202.839844 571.117188 202.5625 570.558594 202.5625 569.996094 C 202.5625 568.878906 202.839844 567.757812 202.839844 566.636719 C 203.402344 563.277344 199.765625 561.878906 197.246094 563.277344 Z M 197.246094 563.277344 "/>
<path style=" stroke:none;fill-rule:nonzero;fill:rgb(80.778503%,34.899902%,13.729858%);fill-opacity:1;" d="M 202.28125 558.238281 C 200.882812 556.839844 198.644531 556.558594 196.6875 557.117188 C 195.289062 557.398438 194.167969 557.960938 193.328125 559.078125 C 192.488281 559.359375 191.652344 559.917969 191.089844 560.757812 C 189.972656 562.4375 189.414062 564.679688 189.132812 566.917969 C 188.851562 568.878906 188.574219 570.835938 189.132812 572.796875 C 190.53125 579.238281 198.085938 579.796875 201.441406 574.757812 C 203.402344 571.675781 204.519531 567.476562 203.679688 563.839844 C 204.242188 562.160156 203.960938 559.917969 202.28125 558.238281 Z M 202.28125 558.238281 "/>
<path style=" stroke:none;fill-rule:nonzero;fill:rgb(80.778503%,34.899902%,13.729858%);fill-opacity:1;" d="M 222.984375 566.359375 C 222.148438 564.957031 220.746094 564.117188 219.070312 564.398438 C 217.109375 564.679688 214.871094 566.917969 215.433594 568.878906 C 215.710938 570.835938 216.269531 572.515625 217.390625 573.917969 C 218.789062 575.597656 220.746094 575.597656 222.425781 574.476562 C 224.105469 573.355469 224.945312 571.398438 224.386719 569.4375 C 224.386719 569.4375 224.386719 568.597656 224.386719 568.597656 C 224.386719 567.757812 223.824219 566.917969 222.984375 566.359375 Z M 222.984375 566.359375 "/>
<path style=" stroke:none;fill-rule:nonzero;fill:rgb(80.778503%,34.899902%,13.729858%);fill-opacity:1;" d="M 215.152344 590.996094 C 214.871094 590.996094 214.59375 590.996094 214.3125 590.996094 C 212.632812 590.4375 210.957031 590.996094 209.835938 592.394531 C 208.71875 593.796875 208.4375 596.59375 210.117188 597.714844 C 210.117188 597.996094 210.394531 598.554688 210.675781 598.835938 C 211.792969 599.953125 212.632812 601.632812 214.03125 602.472656 C 215.433594 603.59375 217.109375 604.152344 219.070312 604.152344 C 221.867188 604.152344 225.503906 600.515625 222.984375 597.714844 C 220.746094 595.195312 219.347656 591.554688 215.152344 590.996094 Z M 215.152344 590.996094 "/>
<path style=" stroke:none;fill-rule:nonzero;fill:rgb(80.778503%,34.899902%,13.729858%);fill-opacity:1;" d="M 486.539062 575.039062 C 487.101562 559.917969 474.789062 549.558594 464.996094 541.160156 C 455.203125 532.480469 446.8125 523.242188 439.257812 513.164062 C 435.898438 509.804688 433.101562 506.445312 430.304688 502.804688 C 427.785156 500.566406 425.269531 498.324219 422.75 496.367188 C 420.792969 494.6875 419.113281 493.007812 416.875 492.167969 C 414.078125 491.046875 410.71875 491.324219 407.640625 491.605469 C 378.824219 494.40625 350.007812 498.324219 321.46875 503.085938 C 299.367188 506.722656 272.226562 506.445312 252.363281 517.363281 C 250.125 518.484375 248.167969 519.882812 245.929688 521.003906 C 243.96875 522.402344 241.730469 523.800781 240.613281 526.042969 C 237.253906 531.921875 241.453125 539.480469 245.367188 545.082031 C 259.359375 564.957031 273.347656 584.835938 287.335938 604.714844 C 289.292969 607.515625 291.253906 610.3125 294.050781 612.273438 C 297.40625 614.511719 303.5625 625.992188 307.480469 626.273438 C 365.675781 628.230469 422.191406 610.035156 478.148438 592.117188 C 482.902344 587.636719 486.261719 582.316406 486.539062 575.039062 Z M 486.539062 575.039062 "/>
<path style=" stroke:none;fill-rule:nonzero;fill:rgb(93.328857%,87.059021%,76.858521%);fill-opacity:1;" d="M 413.796875 516.242188 C 393.652344 505.882812 367.351562 505.324219 343.292969 510.085938 C 309.71875 511.484375 273.90625 528.28125 271.386719 557.960938 C 270.269531 570.558594 278.382812 578.117188 289.292969 582.875 C 292.929688 586.515625 297.40625 589.875 302.722656 592.117188 C 319.511719 599.953125 337.695312 600.792969 355.324219 597.714844 C 356.441406 597.433594 360.359375 596.875 365.953125 595.476562 C 388.058594 596.035156 409.601562 591.554688 426.105469 573.355469 C 447.652344 549.839844 440.375 529.683594 413.796875 516.242188 Z M 413.796875 516.242188 "/>
<path style=" stroke:none;fill-rule:nonzero;fill:rgb(94.509888%,75.689697%,0.779724%);fill-opacity:1;" d="M 419.953125 539.761719 C 418.832031 538.640625 417.433594 537.519531 416.035156 536.402344 C 414.636719 533.882812 412.679688 531.640625 410.71875 529.402344 C 409.601562 526.601562 409.039062 523.523438 406.523438 521.003906 C 404.003906 518.484375 401.207031 517.363281 397.847656 516.804688 C 395.609375 516.523438 393.371094 517.363281 391.132812 517.921875 C 382.183594 514.84375 372.109375 513.445312 362.316406 514.003906 C 343.851562 511.765625 323.988281 513.722656 308.878906 522.683594 C 296.289062 530.242188 289.855469 539.761719 291.8125 549.839844 C 283.699219 566.636719 303.003906 572.796875 315.035156 576.15625 C 319.789062 577.558594 322.308594 579.238281 325.105469 581.476562 C 326.785156 582.875 328.183594 584.277344 330.140625 585.675781 C 330.140625 585.675781 330.140625 585.675781 330.421875 585.675781 C 333.5 588.195312 336.578125 590.15625 340.214844 590.996094 C 343.851562 591.554688 347.769531 590.4375 351.683594 589.035156 C 354.761719 588.753906 357.839844 588.476562 360.917969 587.636719 C 367.632812 589.875 375.1875 587.914062 381.902344 585.957031 C 386.378906 584.835938 388.617188 583.996094 391.972656 580.917969 C 392.253906 580.636719 392.535156 580.355469 393.09375 579.796875 C 396.730469 577.835938 400.085938 575.316406 401.765625 571.675781 C 403.164062 570.558594 404.5625 569.4375 405.683594 568.039062 C 417.992188 564.398438 431.421875 552.640625 419.953125 539.761719 Z M 419.953125 539.761719 "/>
<path style=" stroke:none;fill-rule:nonzero;fill:rgb(80.778503%,34.899902%,13.729858%);fill-opacity:1;" d="M 325.945312 530.800781 C 324.265625 529.121094 320.910156 528.5625 318.113281 529.121094 C 318.113281 529.121094 317.832031 529.121094 317.832031 529.121094 C 315.3125 529.402344 313.074219 530.242188 310.835938 531.921875 C 308.597656 533.320312 306.082031 535.5625 307.199219 537.800781 C 308.320312 540.320312 312.515625 540.878906 315.875 540.039062 C 318.949219 539.480469 320.910156 537.519531 323.425781 536.402344 C 326.503906 535.28125 328.464844 533.042969 325.945312 530.800781 Z M 325.945312 530.800781 "/>
<path style=" stroke:none;fill-rule:nonzero;fill:rgb(80.778503%,34.899902%,13.729858%);fill-opacity:1;" d="M 355.324219 563.277344 C 355.324219 562.4375 355.324219 561.597656 354.761719 561.039062 C 354.484375 560.480469 354.203125 560.199219 353.644531 559.917969 C 353.363281 559.640625 353.363281 559.640625 353.085938 559.359375 C 353.085938 559.359375 353.085938 559.078125 352.804688 559.078125 C 352.246094 557.679688 351.40625 556.277344 350.007812 555.160156 C 346.648438 552.640625 341.894531 553.757812 340.496094 557.960938 C 340.496094 558.238281 340.496094 558.238281 340.214844 558.519531 C 339.933594 559.078125 339.65625 559.359375 339.375 559.917969 C 338.257812 564.117188 341.613281 569.4375 345.25 571.117188 C 347.488281 572.238281 349.726562 571.957031 351.40625 570.835938 C 352.246094 570.558594 353.085938 570.277344 353.644531 569.4375 C 355.882812 568.039062 355.882812 565.519531 355.324219 563.277344 Z M 355.324219 563.277344 "/>
<path style=" stroke:none;fill-rule:nonzero;fill:rgb(80.778503%,34.899902%,13.729858%);fill-opacity:1;" d="M 358.121094 520.164062 C 357.839844 520.164062 357.839844 519.882812 358.121094 520.164062 C 357.839844 517.921875 356.722656 516.242188 353.921875 515.683594 C 347.769531 514.84375 343.570312 521.84375 343.570312 527.164062 C 343.570312 529.960938 344.96875 532.761719 347.769531 533.320312 C 351.125 534.160156 354.484375 532.761719 356.722656 530.523438 C 359.800781 528.28125 361.757812 523.242188 358.121094 520.164062 Z M 358.121094 520.164062 "/>
<path style=" stroke:none;fill-rule:nonzero;fill:rgb(80.778503%,34.899902%,13.729858%);fill-opacity:1;" d="M 385.257812 540.039062 C 384.417969 536.960938 381.0625 535.5625 378.265625 535 C 376.027344 534.722656 373.507812 535.28125 371.828125 536.679688 C 370.429688 537.242188 369.589844 538.359375 369.589844 540.039062 C 369.589844 541.722656 370.152344 542.839844 371.269531 543.679688 C 372.667969 545.640625 375.46875 546.761719 377.984375 546.761719 C 379.941406 546.761719 382.179688 545.921875 383.300781 544.242188 C 384.699219 543.402344 385.820312 542 385.257812 540.039062 Z M 385.257812 540.039062 "/>
<path style=" stroke:none;fill-rule:nonzero;fill:rgb(80.778503%,34.899902%,13.729858%);fill-opacity:1;" d="M 391.695312 568.039062 C 390.855469 566.917969 389.734375 566.078125 388.335938 565.796875 C 386.9375 564.398438 384.699219 563.839844 383.019531 564.117188 C 380.503906 564.117188 377.425781 565.796875 376.027344 568.039062 C 374.066406 571.398438 376.867188 574.476562 379.945312 575.316406 C 382.179688 575.878906 384.980469 575.878906 387.21875 575.039062 C 390.015625 574.199219 393.933594 571.398438 391.695312 568.039062 Z M 391.695312 568.039062 "/>
<path style=" stroke:none;fill-rule:nonzero;fill:rgb(80.778503%,34.899902%,13.729858%);fill-opacity:1;" d="M 403.445312 542.5625 C 403.445312 542.5625 402.886719 533.320312 403.445312 542.5625 C 403.445312 542.5625 416.035156 548.160156 415.753906 542 C 415.195312 533.042969 402.886719 533.320312 403.445312 542.5625 Z M 403.445312 542.5625 "/>
<path style=" stroke:none;fill-rule:nonzero;fill:rgb(80.778503%,34.899902%,13.729858%);fill-opacity:1;" d="M 323.148438 558.800781 C 322.027344 556.839844 320.070312 555.4375 317.832031 555.160156 C 315.3125 554.878906 312.515625 555.71875 311.957031 558.519531 C 311.398438 561.039062 312.796875 564.398438 314.753906 565.796875 C 315.3125 566.359375 315.875 566.636719 316.710938 566.917969 C 318.671875 567.757812 321.1875 567.757812 322.589844 566.359375 C 324.546875 564.679688 324.546875 561.320312 323.148438 558.800781 Z M 323.148438 558.800781 "/>
<path style=" stroke:none;fill-rule:nonzero;fill:rgb(23.139954%,41.178894%,58.039856%);fill-opacity:1;" d="M 359.519531 547.878906 C 359.238281 546.480469 358.398438 545.640625 357.28125 545.082031 C 357 544.800781 356.722656 544.800781 356.160156 544.519531 C 354.761719 544.242188 352.523438 545.082031 352.246094 546.761719 C 352.246094 547.878906 351.964844 549 352.523438 550.398438 C 353.085938 552.078125 355.042969 552.917969 356.441406 552.359375 C 358.398438 551.519531 359.800781 550.121094 359.519531 547.878906 Z M 359.519531 547.878906 "/>
<path style=" stroke:none;fill-rule:nonzero;fill:rgb(23.139954%,41.178894%,58.039856%);fill-opacity:1;" d="M 400.925781 557.960938 C 401.207031 563.839844 406.800781 563.839844 406.523438 557.679688 C 406.523438 553.757812 400.925781 554.039062 400.925781 557.960938 Z M 400.925781 557.960938 "/>
<path style=" stroke:none;fill-rule:nonzero;fill:rgb(23.139954%,41.178894%,58.039856%);fill-opacity:1;" d="M 325.945312 569.4375 C 323.148438 569.4375 323.425781 578.117188 326.226562 578.117188 C 331.820312 577.835938 331.542969 569.15625 325.945312 569.4375 Z M 325.945312 569.4375 "/>
<path style=" stroke:none;fill-rule:nonzero;fill:rgb(23.139954%,41.178894%,58.039856%);fill-opacity:1;" d="M 329.863281 519.601562 C 324.265625 519.882812 324.546875 527.722656 330.140625 527.441406 C 335.738281 527.164062 335.457031 519.324219 329.863281 519.601562 Z M 329.863281 519.601562 "/>
<path style=" stroke:none;fill-rule:nonzero;fill:rgb(23.139954%,41.178894%,58.039856%);fill-opacity:1;" d="M 388.058594 518.203125 L 387.21875 517.363281 C 385.539062 515.683594 382.179688 515.683594 380.503906 517.644531 C 378.824219 519.601562 378.824219 522.121094 380.78125 524.082031 C 381.0625 524.363281 381.34375 524.640625 381.621094 524.921875 C 383.300781 526.601562 386.65625 526.601562 388.335938 524.640625 C 390.296875 522.683594 390.015625 519.882812 388.058594 518.203125 Z M 388.058594 518.203125 "/>
<path style=" stroke:none;fill-rule:nonzero;fill:rgb(23.139954%,41.178894%,58.039856%);fill-opacity:1;" d="M 300.484375 547.601562 L 299.644531 546.761719 C 297.96875 545.082031 294.890625 545.359375 293.492188 547.039062 C 291.8125 548.71875 292.09375 551.238281 293.769531 552.917969 L 294.609375 553.757812 C 296.289062 555.4375 299.367188 555.160156 300.765625 553.480469 C 302.445312 551.800781 302.164062 549.28125 300.484375 547.601562 Z M 300.484375 547.601562 "/>
<path style=" stroke:none;fill-rule:nonzero;fill:rgb(80.778503%,34.899902%,13.729858%);fill-opacity:1;" d="M 331.820312 546.199219 C 330.980469 547.039062 329.863281 547.601562 328.464844 547.601562 C 311.957031 550.121094 294.890625 551.238281 278.382812 547.601562 C 276.703125 547.320312 275.585938 546.480469 274.746094 545.359375 C 273.625 546.199219 272.785156 547.039062 272.507812 548.160156 C 272.226562 548.160156 271.949219 548.160156 271.667969 548.160156 C 267.472656 547.878906 264.671875 551.238281 264.113281 554.320312 C 263.273438 562.71875 267.75 572.515625 275.863281 576.71875 C 276.144531 576.71875 276.144531 576.71875 276.425781 576.996094 C 277.542969 577.835938 278.664062 578.398438 280.0625 578.675781 C 280.621094 580.355469 280.902344 581.757812 280.902344 582.035156 C 281.738281 586.515625 285.9375 588.195312 290.691406 587.355469 C 299.644531 585.957031 307.199219 578.675781 314.472656 574.195312 C 323.148438 568.878906 332.941406 561.039062 343.011719 558.238281 C 345.808594 557.398438 348.609375 554.878906 348.609375 552.078125 C 346.371094 548.160156 339.09375 546.480469 331.820312 546.199219 Z M 331.820312 546.199219 "/>
<path style=" stroke:none;fill-rule:nonzero;fill:rgb(93.328857%,87.059021%,76.858521%);fill-opacity:1;" d="M 279.5 544.800781 C 282.578125 547.039062 285.9375 548.441406 289.292969 549.839844 C 290.691406 549.839844 291.8125 549.558594 292.929688 549.558594 C 293.769531 550.398438 294.609375 550.960938 295.730469 551.519531 C 304.402344 553.480469 313.636719 553.199219 322.867188 552.359375 C 323.988281 552.078125 325.105469 551.800781 326.226562 551.519531 C 326.785156 551.519531 327.34375 551.800781 327.902344 551.800781 C 333.78125 550.960938 339.65625 550.121094 345.25 549.28125 C 346.371094 548.71875 347.769531 548.160156 348.886719 547.320312 C 348.609375 547.039062 348.328125 546.761719 348.046875 546.480469 C 339.375 540.039062 328.464844 540.601562 318.949219 542 C 310.277344 543.402344 302.164062 544.242188 293.769531 543.121094 C 290.972656 542.5625 287.894531 541.722656 284.816406 540.601562 C 284.816406 540.320312 284.816406 540.039062 284.816406 539.480469 C 284.816406 537.242188 282.300781 536.960938 281.460938 538.359375 C 281.179688 538.359375 280.621094 538.359375 280.339844 538.359375 C 279.78125 537.800781 279.222656 537.519531 278.664062 537.800781 C 275.863281 538.640625 274.746094 541.441406 275.304688 543.960938 C 276.425781 543.679688 278.101562 543.960938 279.5 544.800781 Z M 279.5 544.800781 "/>
<path style=" stroke:none;fill-rule:nonzero;fill:rgb(80.778503%,34.899902%,13.729858%);fill-opacity:1;" d="M 198.363281 536.121094 C 198.085938 535.839844 197.804688 535.5625 197.527344 535.5625 C 195.289062 533.601562 191.371094 535.839844 190.8125 538.640625 C 190.53125 540.601562 191.089844 542.839844 191.929688 544.800781 C 192.488281 548.160156 195.289062 551.800781 198.363281 552.917969 C 200.324219 555.160156 203.679688 553.480469 205.078125 551.238281 C 205.359375 550.679688 205.640625 550.121094 205.917969 549.558594 C 206.757812 548.160156 207.039062 546.761719 205.917969 545.082031 C 205.640625 544.800781 205.359375 544.242188 205.078125 543.960938 C 204.242188 542.28125 203.960938 540.039062 203.679688 537.800781 C 202.839844 535.839844 200.324219 535.28125 198.363281 536.121094 Z M 198.363281 536.121094 "/>
<path style=" stroke:none;fill-rule:nonzero;fill:rgb(93.328857%,87.059021%,76.858521%);fill-opacity:1;" d="M 515.636719 682.546875 C 512.839844 679.1875 508.363281 679.1875 504.726562 677.785156 C 499.691406 675.546875 499.128906 671.90625 497.453125 667.425781 C 494.09375 659.867188 486.539062 666.585938 481.785156 669.105469 C 479.824219 670.226562 477.585938 671.347656 476.46875 673.308594 C 475.347656 674.148438 474.789062 675.265625 475.070312 676.386719 C 475.347656 678.90625 477.027344 680.585938 478.148438 682.546875 C 478.707031 683.386719 478.984375 683.945312 479.265625 684.785156 C 479.546875 685.625 480.386719 686.183594 481.222656 686.464844 C 481.222656 686.746094 481.503906 686.746094 481.503906 687.023438 C 483.183594 688.425781 485.140625 688.707031 487.101562 688.984375 C 490.457031 689.265625 493.816406 690.105469 497.171875 690.386719 C 498.289062 690.386719 499.691406 690.664062 501.089844 690.664062 C 501.648438 691.785156 503.046875 692.625 504.726562 692.066406 C 507.804688 691.226562 512.839844 692.066406 515.359375 689.546875 C 517.597656 687.867188 517.597656 684.785156 515.636719 682.546875 Z M 515.636719 682.546875 "/>
<g clip-path="url(#clip3)" clip-rule="nonzero">
<path style=" stroke:none;fill-rule:nonzero;fill:rgb(18.818665%,11.369324%,26.669312%);fill-opacity:1;" d="M 795.980469 606.675781 C 795.980469 606.675781 795.980469 606.394531 795.980469 606.675781 C 798.777344 597.433594 801.292969 588.195312 801.574219 578.957031 C 801.574219 577.558594 801.015625 576.4375 799.335938 575.878906 C 784.789062 572.238281 768.558594 574.757812 752.890625 575.039062 C 733.585938 575.597656 715.679688 575.039062 697.214844 572.238281 C 681.269531 569.71875 664.480469 571.957031 647.972656 571.398438 C 635.382812 569.4375 622.515625 565.796875 609.644531 566.636719 C 598.453125 567.476562 593.136719 573.355469 590.898438 582.316406 C 589.5 582.597656 588.101562 583.714844 587.542969 585.394531 C 583.34375 607.515625 579.148438 629.632812 574.671875 651.75 C 573.550781 656.230469 572.714844 660.429688 571.875 664.90625 C 570.476562 670.507812 569.074219 676.105469 567.957031 681.707031 C 566.558594 686.183594 565.71875 690.664062 566.558594 694.023438 C 569.355469 704.101562 586.980469 700.183594 597.332031 699.34375 C 606.847656 699.625 615.519531 701.304688 624.753906 702.703125 C 634.542969 704.101562 644.617188 702.984375 654.6875 702.703125 C 667.839844 702.421875 680.988281 702.984375 693.859375 702.984375 C 707.007812 703.261719 720.15625 703.261719 733.308594 703.261719 C 742.820312 703.261719 755.128906 704.945312 764.921875 701.863281 C 775.554688 698.503906 776.953125 687.585938 778.074219 678.625 C 782.828125 667.425781 783.667969 655.109375 785.066406 643.910156 C 785.625 642.230469 785.90625 640.550781 786.464844 638.871094 C 790.941406 628.230469 795.140625 617.59375 795.980469 606.675781 Z M 795.980469 606.675781 "/>
</g>
<path style=" stroke:none;fill-rule:nonzero;fill:rgb(18.818665%,11.369324%,26.669312%);fill-opacity:1;" d="M 710.085938 742.460938 C 710.085938 742.179688 710.085938 742.179688 710.367188 741.898438 C 714.28125 727.339844 693.859375 731.261719 686.304688 734.058594 L 682.386719 734.058594 C 682.667969 734.058594 682.945312 733.21875 682.945312 732.378906 C 683.226562 725.941406 686.304688 720.339844 686.863281 714.183594 C 687.703125 707.464844 686.863281 700.464844 686.863281 693.746094 C 686.863281 689.265625 679.308594 689.265625 679.308594 693.746094 C 679.308594 694.585938 679.308594 695.144531 679.03125 695.984375 C 678.191406 692.34375 671.753906 692.625 671.476562 696.824219 C 671.195312 708.582031 668.398438 720.0625 667.558594 731.820312 C 667.558594 732.941406 667.839844 733.78125 668.679688 734.339844 C 663.640625 734.339844 658.605469 734.339844 653.570312 734.339844 C 651.332031 734.339844 649.933594 736.019531 649.933594 737.421875 C 642.097656 739.660156 637.34375 743.578125 642.097656 750.578125 C 645.457031 755.617188 652.449219 753.9375 657.488281 752.257812 C 664.203125 749.738281 671.195312 748.339844 678.191406 748.339844 L 688.542969 748.339844 C 690.78125 748.339844 693.019531 748.339844 694.976562 748.617188 C 697.496094 748.617188 700.011719 748.339844 702.25 748.339844 L 707.566406 748.339844 C 711.484375 748.339844 712.324219 744.417969 710.085938 742.460938 Z M 699.175781 740.21875 C 698.613281 740.78125 698.335938 742.179688 697.773438 742.460938 C 693.578125 742.179688 689.382812 742.738281 684.90625 742.738281 L 686.023438 742.738281 C 686.304688 742.738281 686.582031 742.738281 686.863281 742.738281 L 695.816406 742.738281 C 698.054688 742.738281 699.175781 740.5 699.453125 738.820312 C 700.292969 739.101562 700.292969 738.820312 699.175781 740.21875 Z M 699.175781 740.21875 "/>
<path style=" stroke:none;fill-rule:nonzero;fill:rgb(94.509888%,75.689697%,0.779724%);fill-opacity:1;" d="M 752.890625 809.933594 L 571.59375 809.933594 C 564.039062 809.933594 558.445312 802.652344 560.402344 795.375 L 570.472656 757.578125 C 571.875 752.539062 576.351562 748.898438 581.664062 748.898438 L 762.964844 748.898438 C 770.519531 748.898438 776.113281 756.179688 774.15625 763.457031 L 764.082031 801.253906 C 762.683594 806.574219 758.207031 809.933594 752.890625 809.933594 Z M 752.890625 809.933594 "/>
</g>
</svg>
