<?xml version="1.0" encoding="UTF-8"?>
<svg xmlns="http://www.w3.org/2000/svg" xmlns:xlink="http://www.w3.org/1999/xlink" width="810pt" height="809.999993pt" viewBox="0 0 810 809.999993" version="1.2">
<defs>
<clipPath id="clip1">
  <path d="M 297.164062 62 L 513.164062 62 L 513.164062 163 L 297.164062 163 Z M 297.164062 62 "/>
</clipPath>
<clipPath id="clip2">
  <path d="M 139.539062 592 L 205 592 L 205 746 L 139.539062 746 Z M 139.539062 592 "/>
</clipPath>
<clipPath id="clip3">
  <path d="M 605 592 L 670.539062 592 L 670.539062 745 L 605 745 Z M 605 592 "/>
</clipPath>
<clipPath id="clip4">
  <path d="M 139.539062 734 L 670.539062 734 L 670.539062 755 L 139.539062 755 Z M 139.539062 734 "/>
</clipPath>
</defs>
<g id="surface1">
<path style=" stroke:none;fill-rule:nonzero;fill:rgb(34.118652%,59.609985%,84.709167%);fill-opacity:1;" d="M 509.902344 80.335938 L 509.902344 130.644531 C 509.902344 138.585938 503.449219 145.015625 495.476562 145.015625 L 315.195312 145.015625 C 307.222656 145.015625 300.773438 138.585938 300.773438 130.644531 L 300.773438 80.335938 C 300.773438 72.390625 307.222656 65.960938 315.195312 65.960938 L 495.476562 65.960938 C 503.449219 65.960938 509.902344 72.390625 509.902344 80.335938 "/>
<path style=" stroke:none;fill-rule:nonzero;fill:rgb(42.349243%,66.668701%,88.238525%);fill-opacity:1;" d="M 488.265625 145.015625 L 488.265625 159.390625 L 322.40625 159.390625 L 322.40625 145.015625 L 488.265625 145.015625 "/>
<path style=" stroke:none;fill-rule:nonzero;fill:rgb(25.489807%,49.01886%,78.42865%);fill-opacity:1;" d="M 488.265625 130.644531 L 488.265625 145.015625 L 322.40625 145.015625 L 322.40625 130.644531 C 322.40625 126.683594 325.644531 123.457031 329.617188 123.457031 L 481.054688 123.457031 C 485.011719 123.457031 488.265625 126.683594 488.265625 130.644531 "/>
<path style=" stroke:none;fill-rule:nonzero;fill:rgb(20.388794%,42.349243%,71.759033%);fill-opacity:1;" d="M 488.265625 130.644531 L 322.40625 130.644531 C 322.40625 126.683594 325.644531 123.457031 329.617188 123.457031 L 481.054688 123.457031 C 485.011719 123.457031 488.265625 126.683594 488.265625 130.644531 "/>
<path style=" stroke:none;fill-rule:nonzero;fill:rgb(6.269836%,5.879211%,5.099487%);fill-opacity:1;" d="M 384.757812 203.5625 L 378.601562 209.695312 L 372.886719 209.695312 L 372.886719 203.996094 L 379.039062 197.863281 L 373.941406 192.78125 L 369.28125 197.429688 L 364.617188 192.78125 L 359.519531 197.863281 L 365.671875 203.996094 L 365.671875 209.695312 L 359.957031 209.695312 L 353.800781 203.5625 L 348.703125 208.644531 L 353.363281 213.289062 L 348.703125 217.9375 L 353.800781 223.015625 L 359.957031 216.882812 L 365.671875 216.882812 L 365.671875 222.582031 L 359.519531 228.714844 L 364.617188 233.796875 L 369.28125 229.152344 L 373.941406 233.796875 L 379.039062 228.714844 L 372.886719 222.582031 L 372.886719 216.882812 L 378.601562 216.882812 L 384.757812 223.015625 L 389.855469 217.9375 L 385.195312 213.289062 L 389.855469 208.644531 L 384.757812 203.5625 "/>
<path style=" stroke:none;fill-rule:nonzero;fill:rgb(6.269836%,5.879211%,5.099487%);fill-opacity:1;" d="M 456.871094 203.5625 L 450.71875 209.695312 L 445 209.695312 L 445 203.996094 L 451.152344 197.863281 L 446.054688 192.78125 L 441.394531 197.429688 L 436.730469 192.78125 L 431.632812 197.863281 L 437.789062 203.996094 L 437.789062 209.695312 L 432.070312 209.695312 L 425.914062 203.5625 L 420.816406 208.644531 L 425.476562 213.289062 L 420.816406 217.9375 L 425.914062 223.015625 L 432.070312 216.882812 L 437.789062 216.882812 L 437.789062 222.582031 L 431.632812 228.714844 L 436.730469 233.796875 L 441.394531 229.152344 L 446.054688 233.796875 L 451.152344 228.714844 L 445 222.582031 L 445 216.882812 L 450.71875 216.882812 L 456.871094 223.015625 L 461.96875 217.9375 L 457.308594 213.289062 L 461.96875 208.644531 L 456.871094 203.5625 "/>
<g clip-path="url(#clip1)" clip-rule="nonzero">
<path style=" stroke:none;fill-rule:nonzero;fill:rgb(6.269836%,5.879211%,5.099487%);fill-opacity:1;" d="M 506.292969 130.644531 C 506.292969 136.566406 501.4375 141.421875 495.476562 141.421875 L 491.871094 141.421875 L 491.871094 130.644531 C 491.871094 124.71875 487.011719 119.863281 481.054688 119.863281 L 329.617188 119.863281 C 323.671875 119.863281 318.800781 124.71875 318.800781 130.644531 L 318.800781 141.421875 L 315.195312 141.421875 C 309.25 141.421875 304.378906 136.566406 304.378906 130.644531 L 304.378906 80.335938 C 304.378906 74.414062 309.25 69.554688 315.195312 69.554688 L 495.476562 69.554688 C 501.4375 69.554688 506.292969 74.414062 506.292969 80.335938 Z M 484.660156 141.421875 L 326.011719 141.421875 L 326.011719 130.644531 C 326.011719 128.664062 327.632812 127.050781 329.617188 127.050781 L 481.054688 127.050781 C 483.042969 127.050781 484.660156 128.664062 484.660156 130.644531 Z M 484.660156 155.796875 L 326.011719 155.796875 L 326.011719 148.609375 L 484.660156 148.609375 Z M 495.476562 62.367188 L 315.195312 62.367188 C 305.238281 62.367188 297.164062 70.410156 297.164062 80.335938 L 297.164062 130.644531 C 297.164062 140.566406 305.238281 148.609375 315.195312 148.609375 L 318.800781 148.609375 L 318.800781 159.390625 C 318.800781 161.367188 320.417969 162.984375 322.40625 162.984375 L 488.265625 162.984375 C 490.253906 162.984375 491.871094 161.367188 491.871094 159.390625 L 491.871094 148.609375 L 495.476562 148.609375 C 505.4375 148.609375 513.507812 140.566406 513.507812 130.644531 L 513.507812 80.335938 C 513.507812 70.410156 505.4375 62.367188 495.476562 62.367188 "/>
</g>
<path style=" stroke:none;fill-rule:nonzero;fill:rgb(6.269836%,5.879211%,5.099487%);fill-opacity:1;" d="M 401.730469 184.542969 L 408.941406 184.542969 L 408.941406 170.167969 L 401.730469 170.167969 L 401.730469 184.542969 "/>
<path style=" stroke:none;fill-rule:nonzero;fill:rgb(6.269836%,5.879211%,5.099487%);fill-opacity:1;" d="M 445 170.167969 L 437.789062 170.167969 L 437.789062 184.542969 L 445 184.542969 L 445 170.167969 "/>
<path style=" stroke:none;fill-rule:nonzero;fill:rgb(6.269836%,5.879211%,5.099487%);fill-opacity:1;" d="M 372.886719 170.167969 L 365.671875 170.167969 L 365.671875 184.542969 L 372.886719 184.542969 L 372.886719 170.167969 "/>
<path style=" stroke:none;fill-rule:nonzero;fill:rgb(6.269836%,5.879211%,5.099487%);fill-opacity:1;" d="M 426.96875 170.167969 L 419.757812 170.167969 L 419.757812 177.355469 L 426.96875 177.355469 L 426.96875 170.167969 "/>
<path style=" stroke:none;fill-rule:nonzero;fill:rgb(6.269836%,5.879211%,5.099487%);fill-opacity:1;" d="M 473.84375 184.542969 L 481.054688 184.542969 L 481.054688 170.167969 L 473.84375 170.167969 L 473.84375 184.542969 "/>
<path style=" stroke:none;fill-rule:nonzero;fill:rgb(6.269836%,5.879211%,5.099487%);fill-opacity:1;" d="M 455.816406 177.355469 L 463.027344 177.355469 L 463.027344 170.167969 L 455.816406 170.167969 L 455.816406 177.355469 "/>
<path style=" stroke:none;fill-rule:nonzero;fill:rgb(6.269836%,5.879211%,5.099487%);fill-opacity:1;" d="M 383.703125 177.355469 L 390.914062 177.355469 L 390.914062 170.167969 L 383.703125 170.167969 L 383.703125 177.355469 "/>
<path style=" stroke:none;fill-rule:nonzero;fill:rgb(6.269836%,5.879211%,5.099487%);fill-opacity:1;" d="M 329.617188 184.542969 L 336.828125 184.542969 L 336.828125 170.167969 L 329.617188 170.167969 L 329.617188 184.542969 "/>
<path style=" stroke:none;fill-rule:nonzero;fill:rgb(6.269836%,5.879211%,5.099487%);fill-opacity:1;" d="M 354.855469 170.167969 L 347.644531 170.167969 L 347.644531 177.355469 L 354.855469 177.355469 L 354.855469 170.167969 "/>
<path style=" stroke:none;fill-rule:nonzero;fill:rgb(6.269836%,5.879211%,5.099487%);fill-opacity:1;" d="M 484.660156 112.675781 L 491.871094 112.675781 L 491.871094 105.488281 L 484.660156 105.488281 L 484.660156 112.675781 "/>
<path style=" stroke:none;fill-rule:nonzero;fill:rgb(6.269836%,5.879211%,5.099487%);fill-opacity:1;" d="M 466.632812 112.675781 L 473.84375 112.675781 L 473.84375 105.488281 L 466.632812 105.488281 L 466.632812 112.675781 "/>
<path style=" stroke:none;fill-rule:nonzero;fill:rgb(6.269836%,5.879211%,5.099487%);fill-opacity:1;" d="M 448.605469 112.675781 L 455.816406 112.675781 L 455.816406 105.488281 L 448.605469 105.488281 L 448.605469 112.675781 "/>
<path style=" stroke:none;fill-rule:nonzero;fill:rgb(19.219971%,45.878601%,58.81958%);fill-opacity:1;" d="M 605.644531 738.386719 C 605.644531 740.648438 603.816406 742.476562 601.558594 742.476562 L 208.617188 742.476562 C 206.359375 742.476562 204.527344 740.648438 204.527344 738.386719 L 204.527344 482.910156 C 204.527344 480.648438 206.359375 478.820312 208.617188 478.820312 L 601.558594 478.820312 C 603.816406 478.820312 605.644531 480.648438 605.644531 482.910156 L 605.644531 738.386719 "/>
<g clip-path="url(#clip2)" clip-rule="nonzero">
<path style=" stroke:none;fill-rule:nonzero;fill:rgb(26.669312%,61.178589%,74.899292%);fill-opacity:1;" d="M 150.054688 745.167969 C 144.324219 745.167969 139.679688 740.515625 139.679688 734.78125 L 139.679688 603.375 C 139.679688 597.636719 144.324219 592.988281 150.054688 592.988281 L 194.15625 592.988281 C 199.882812 592.988281 204.527344 597.636719 204.527344 603.375 L 204.527344 745.167969 L 150.054688 745.167969 "/>
</g>
<path style=" stroke:none;fill-rule:nonzero;fill:rgb(30.198669%,69.40918%,84.709167%);fill-opacity:1;" d="M 403.425781 631.71875 C 403.425781 633.976562 401.601562 635.808594 399.347656 635.808594 L 213.128906 635.808594 C 210.875 635.808594 209.046875 633.976562 209.046875 631.71875 L 209.046875 483.804688 C 209.046875 481.550781 210.875 479.71875 213.128906 479.71875 L 399.347656 479.71875 C 401.601562 479.71875 403.425781 481.550781 403.425781 483.804688 L 403.425781 631.71875 "/>
<path style=" stroke:none;fill-rule:nonzero;fill:rgb(32.939148%,78.039551%,89.019775%);fill-opacity:1;" d="M 400.519531 691.890625 L 220.824219 691.890625 C 214.199219 691.890625 208.835938 686.519531 208.835938 679.894531 L 208.835938 645.390625 C 208.835938 640.929688 214.394531 635.8125 220.824219 633.398438 C 319.191406 614.65625 391.652344 633.398438 391.652344 633.398438 C 399.015625 635.945312 401.269531 638.738281 403.628906 645.390625 L 403.628906 687.664062 C 403.628906 687.664062 403.941406 691.890625 400.519531 691.890625 "/>
<path style=" stroke:none;fill-rule:nonzero;fill:rgb(26.669312%,61.178589%,74.899292%);fill-opacity:1;" d="M 403.628906 646.429688 L 208.835938 646.429688 L 208.835938 679.894531 C 208.835938 686.519531 214.199219 691.890625 220.824219 691.890625 L 400.519531 691.890625 C 403.941406 691.890625 403.628906 687.664062 403.628906 687.664062 L 403.628906 646.429688 "/>
<path style=" stroke:none;fill-rule:nonzero;fill:rgb(26.669312%,61.178589%,74.899292%);fill-opacity:1;" d="M 403.636719 745.167969 L 208.773438 745.167969 L 208.773438 695.898438 L 403.636719 695.898438 L 403.636719 745.167969 "/>
<path style=" stroke:none;fill-rule:nonzero;fill:rgb(30.198669%,69.40918%,84.709167%);fill-opacity:1;" d="M 601.195312 631.714844 C 601.195312 633.976562 599.367188 635.808594 597.105469 635.808594 L 410.890625 635.808594 C 408.636719 635.808594 406.808594 633.976562 406.808594 631.714844 L 406.808594 483.800781 C 406.808594 481.546875 408.636719 479.714844 410.890625 479.714844 L 597.105469 479.714844 C 599.367188 479.714844 601.195312 481.546875 601.195312 483.800781 L 601.195312 631.714844 "/>
<path style=" stroke:none;fill-rule:nonzero;fill:rgb(32.939148%,78.039551%,89.019775%);fill-opacity:1;" d="M 598.28125 691.890625 L 418.578125 691.890625 C 411.960938 691.890625 406.597656 686.519531 406.597656 679.894531 L 406.597656 645.394531 C 406.597656 640.929688 412.160156 635.8125 418.578125 633.398438 C 516.945312 614.65625 589.410156 633.398438 589.410156 633.398438 C 596.777344 635.949219 599.023438 638.742188 601.386719 645.394531 L 601.386719 687.664062 C 601.386719 687.664062 601.699219 691.890625 598.28125 691.890625 "/>
<path style=" stroke:none;fill-rule:nonzero;fill:rgb(26.669312%,61.178589%,74.899292%);fill-opacity:1;" d="M 601.386719 646.433594 L 406.597656 646.433594 L 406.597656 679.894531 C 406.597656 686.519531 411.960938 691.890625 418.578125 691.890625 L 598.28125 691.890625 C 601.699219 691.890625 601.386719 687.664062 601.386719 687.664062 L 601.386719 646.433594 "/>
<path style=" stroke:none;fill-rule:nonzero;fill:rgb(26.669312%,61.178589%,74.899292%);fill-opacity:1;" d="M 601.394531 745.167969 L 406.53125 745.167969 L 406.53125 695.898438 L 601.394531 695.898438 L 601.394531 745.167969 "/>
<g clip-path="url(#clip3)" clip-rule="nonzero">
<path style=" stroke:none;fill-rule:nonzero;fill:rgb(26.669312%,61.178589%,74.899292%);fill-opacity:1;" d="M 660.117188 744.269531 C 665.847656 744.269531 670.488281 739.621094 670.488281 733.886719 L 670.488281 602.476562 C 670.488281 596.742188 665.847656 592.09375 660.117188 592.09375 L 616.015625 592.09375 C 610.289062 592.09375 605.644531 596.742188 605.644531 602.476562 L 605.644531 744.269531 L 660.117188 744.269531 "/>
</g>
<path style=" stroke:none;fill-rule:nonzero;fill:rgb(74.119568%,73.728943%,73.728943%);fill-opacity:1;" d="M 164.933594 754.191406 L 186.777344 754.191406 L 171.488281 776.171875 C 171.488281 776.171875 168.652344 780.90625 162.007812 780.867188 C 162.007812 780.867188 155.191406 781.738281 158.199219 775.546875 L 164.933594 754.191406 "/>
<path style=" stroke:none;fill-rule:nonzero;fill:rgb(61.959839%,61.569214%,61.569214%);fill-opacity:1;" d="M 186.777344 754.191406 L 177.214844 754.191406 L 167.75 776.234375 C 166.238281 777.878906 164.035156 778.988281 161.804688 778.988281 C 160.992188 778.988281 160.175781 778.84375 159.390625 778.523438 C 158.667969 778.222656 158.101562 777.703125 157.621094 777.085938 C 156.714844 780.496094 159.734375 780.90625 161.226562 780.90625 C 161.691406 780.90625 162.007812 780.867188 162.007812 780.867188 C 162.039062 780.867188 162.066406 780.867188 162.09375 780.867188 C 168.675781 780.867188 171.488281 776.171875 171.488281 776.171875 L 186.777344 754.191406 "/>
<path style=" stroke:none;fill-rule:nonzero;fill:rgb(74.119568%,73.728943%,73.728943%);fill-opacity:1;" d="M 645.234375 754.191406 L 623.402344 754.191406 L 641.601562 776.171875 C 641.601562 776.171875 644.4375 780.90625 651.074219 780.867188 C 651.074219 780.867188 657.886719 781.738281 654.882812 775.546875 L 645.234375 754.191406 "/>
<path style=" stroke:none;fill-rule:nonzero;fill:rgb(61.959839%,61.569214%,61.569214%);fill-opacity:1;" d="M 632.960938 754.191406 L 623.398438 754.191406 L 641.597656 776.171875 C 641.597656 776.171875 644.40625 780.867188 650.988281 780.867188 C 651.015625 780.867188 651.042969 780.867188 651.070312 780.867188 C 651.070312 780.867188 651.390625 780.90625 651.855469 780.90625 C 653.347656 780.90625 656.363281 780.496094 655.457031 777.085938 C 654.980469 777.703125 654.417969 778.222656 653.683594 778.523438 C 652.898438 778.84375 652.085938 778.988281 651.277344 778.988281 C 649.046875 778.988281 646.84375 777.878906 645.332031 776.234375 L 632.960938 754.191406 "/>
<g clip-path="url(#clip4)" clip-rule="nonzero">
<path style=" stroke:none;fill-rule:nonzero;fill:rgb(80.389404%,44.709778%,33.729553%);fill-opacity:1;" d="M 139.679688 734.910156 L 139.679688 743.863281 C 140.523438 752.359375 146.765625 754.191406 152.460938 754.191406 L 660.175781 754.191406 C 665.871094 754.191406 670.488281 749.566406 670.488281 743.863281 L 670.488281 734.910156 L 139.679688 734.910156 "/>
</g>
<path style=" stroke:none;fill-rule:nonzero;fill:rgb(29.019165%,43.139648%,74.899292%);fill-opacity:1;" d="M 330.699219 620.660156 C 330.699219 620.660156 325.289062 617.449219 325.390625 605.789062 C 326.632812 573.492188 320.820312 547.988281 317.042969 535.171875 L 317.238281 535.269531 C 317.238281 535.269531 315.476562 526.066406 317.6875 522.050781 C 317.6875 522.050781 316.734375 516.570312 312.589844 520.175781 C 312.589844 520.175781 310.210938 524.148438 302.1875 525.222656 C 270.828125 523.542969 246.632812 527.738281 232.054688 531.472656 L 232.058594 531.46875 C 220.691406 534.007812 216.421875 529.382812 216.421875 529.382812 C 211.621094 526.726562 211.832031 532.285156 211.832031 532.285156 C 214.832031 535.746094 215.03125 545.109375 215.03125 545.113281 C 213.402344 558.5 211.972656 585.933594 221.191406 617.121094 L 220.972656 616.84375 C 223.503906 628.226562 218.886719 632.496094 218.886719 632.496094 C 216.230469 637.308594 221.789062 637.09375 221.789062 637.09375 C 224.75 634.515625 232.054688 634.003906 234.0625 633.910156 C 247.589844 635.8125 278.207031 637.753906 315.648438 625.265625 L 315.625 625.3125 C 315.625 625.3125 324.816406 623.550781 328.824219 625.761719 C 328.824219 625.761719 334.296875 624.808594 330.699219 620.660156 "/>
<path style=" stroke:none;fill-rule:nonzero;fill:rgb(23.139954%,36.859131%,70.588684%);fill-opacity:1;" d="M 325.390625 605.789062 C 325.433594 604.753906 325.460938 603.71875 325.488281 602.695312 C 325.167969 602.625 324.933594 602.347656 324.976562 601.960938 C 325.054688 601.5625 325.050781 601.167969 324.980469 600.777344 C 321.230469 602.691406 316.292969 603.394531 312.238281 603.566406 C 310.589844 603.632812 308.460938 603.816406 306.933594 603.03125 C 305.628906 602.367188 306.039062 602.921875 304.414062 603.324219 C 302.554688 603.792969 300.738281 604.167969 298.984375 604.964844 C 298.625 605.125 298.289062 604.894531 298.128906 604.589844 C 297.765625 603.910156 297.558594 603.339844 297.414062 602.707031 C 294.824219 604.296875 291.871094 605.035156 288.796875 604.332031 C 286.789062 603.871094 285.375 602.976562 283.429688 604.105469 C 281.605469 605.164062 279.675781 605.976562 277.691406 606.652344 C 277.378906 606.761719 277.128906 606.65625 276.917969 606.433594 C 275.203125 604.625 273.496094 603.496094 271.117188 602.757812 C 270.605469 602.597656 270.660156 601.902344 270.992188 601.621094 C 271.792969 600.949219 272.339844 600.148438 272.90625 599.324219 C 271.832031 598.800781 270.804688 598.242188 269.628906 597.890625 C 269.226562 597.765625 268.949219 597.390625 269.140625 596.96875 C 269.441406 596.273438 269.769531 595.59375 270.089844 594.90625 C 268.902344 594.851562 267.382812 594.625 267.03125 593.738281 C 266.636719 592.738281 267.023438 590.980469 267.484375 589.800781 C 263.582031 587.984375 262.957031 584.257812 265.457031 581.117188 C 263.640625 580.863281 261.902344 580.242188 260.03125 580.257812 C 259.636719 580.257812 259.207031 579.949219 259.3125 579.492188 C 260.175781 575.742188 262.578125 573.214844 265.222656 570.625 C 263.5 569.597656 262.386719 567.746094 260.925781 566.390625 C 260.542969 566.035156 260.644531 565.492188 261.097656 565.265625 C 263.199219 564.199219 265.019531 563.628906 267.042969 563.847656 C 264.847656 561.359375 263.519531 558.40625 263.472656 554.902344 C 263.46875 554.445312 263.78125 554.148438 264.238281 554.183594 C 266.039062 554.304688 267.8125 554.050781 269.605469 554.015625 C 269.175781 553.519531 268.675781 553.082031 268.09375 552.726562 C 267.640625 552.472656 267.527344 551.691406 268.117188 551.507812 C 270.960938 550.640625 273.824219 549.851562 276.535156 548.632812 C 276.019531 548.007812 275.578125 547.351562 275.125 546.648438 C 274.855469 546.238281 275.0625 545.648438 275.582031 545.601562 C 278.777344 545.296875 285.527344 545.882812 287.507812 542.75 C 287.535156 542.710938 287.914062 541.25 288.320312 540.949219 C 289.117188 540.363281 290.414062 540.058594 291.332031 539.730469 C 293.726562 538.871094 296.117188 538.035156 298.351562 536.828125 L 296.648438 535.453125 C 296.238281 535.125 296.386719 534.535156 296.824219 534.324219 C 298.578125 533.472656 300.246094 532.644531 302.105469 532.167969 C 301.753906 531.539062 301.472656 531.34375 301.585938 530.320312 C 301.6875 529.472656 303.796875 528.597656 304.417969 528.207031 C 304.714844 528.019531 308.964844 525.511719 309.019531 526.039062 C 309.007812 525.878906 307.566406 524.804688 306.710938 524.152344 C 305.457031 524.597656 303.964844 524.984375 302.1875 525.222656 C 270.828125 523.542969 246.632812 527.738281 232.054688 531.472656 L 232.058594 531.46875 C 220.691406 534.007812 216.421875 529.382812 216.421875 529.382812 C 211.621094 526.726562 211.832031 532.285156 211.832031 532.285156 C 214.832031 535.746094 215.03125 545.109375 215.03125 545.113281 C 213.402344 558.5 211.972656 585.933594 221.191406 617.121094 L 220.972656 616.84375 C 223.503906 628.226562 218.886719 632.496094 218.886719 632.496094 C 216.230469 637.308594 221.789062 637.09375 221.789062 637.09375 C 224.75 634.515625 232.054688 634.003906 234.0625 633.910156 C 247.589844 635.8125 278.207031 637.753906 315.648438 625.265625 L 315.625 625.3125 C 315.625 625.3125 324.816406 623.550781 328.824219 625.761719 C 328.824219 625.761719 334.296875 624.808594 330.699219 620.660156 C 330.699219 620.660156 325.289062 617.449219 325.390625 605.789062 "/>
<path style=" stroke:none;fill-rule:nonzero;fill:rgb(29.019165%,43.139648%,74.899292%);fill-opacity:1;" d="M 317.074219 520.335938 C 316.394531 519.113281 315.066406 518.023438 312.589844 520.175781 C 312.589844 520.175781 312.210938 520.796875 311.269531 521.613281 C 313.222656 521.253906 315.167969 520.859375 317.074219 520.335938 "/>
<path style=" stroke:none;fill-rule:nonzero;fill:rgb(21.179199%,34.118652%,64.709473%);fill-opacity:1;" d="M 330.699219 620.660156 C 330.699219 620.660156 326.675781 618.257812 325.640625 610.101562 L 325.339844 610.222656 C 324.464844 611.503906 323.652344 612.785156 322.941406 614.003906 C 322.625 614.542969 321.757812 614.5 321.679688 613.800781 L 321.558594 612.609375 C 320.386719 613.394531 319.386719 614.359375 318.320312 615.300781 C 318.105469 615.484375 317.714844 615.464844 317.511719 615.277344 C 317.1875 614.984375 316.933594 614.703125 316.757812 614.390625 C 314.71875 616.113281 312.539062 617.683594 311.027344 619.925781 C 310.695312 620.421875 309.917969 620.117188 309.859375 619.578125 L 309.683594 617.921875 C 308.789062 617.835938 307.886719 617.820312 306.988281 617.886719 C 305.128906 618.039062 303.382812 618.324219 301.578125 618.832031 C 301.3125 618.910156 300.972656 618.875 300.804688 618.613281 C 298.445312 614.785156 289.824219 621.210938 287.496094 623.085938 C 287.09375 623.414062 286.515625 623.097656 286.445312 622.625 C 286.199219 620.804688 283.527344 622.070312 282.328125 622.03125 C 281.304688 621.996094 279.078125 622.292969 278.242188 621.578125 C 277.144531 620.636719 276.539062 618.035156 274.28125 619.824219 C 273.539062 620.410156 272.726562 621.324219 271.734375 621.449219 C 266.601562 622.117188 261.511719 624.230469 257.363281 620.351562 C 256.628906 620.941406 255.949219 621.242188 254.960938 621.507812 C 254.515625 621.621094 253.941406 621.324219 254.066406 620.785156 C 254.535156 618.765625 253.941406 616.988281 253.523438 615.089844 C 252.464844 615.492188 251.363281 615.679688 250.226562 615.804688 C 249.722656 615.863281 249.355469 615.335938 249.554688 614.878906 C 250.296875 613.1875 250.65625 611.375 251.246094 609.636719 C 249.78125 609.898438 248.304688 609.855469 246.78125 609.949219 C 246.425781 609.96875 246.089844 609.734375 246.058594 609.359375 C 245.957031 608.332031 245.960938 607.375 246.140625 606.386719 C 245.023438 606.175781 243.886719 606.117188 242.777344 605.820312 C 242.359375 605.710938 242.113281 605.324219 242.285156 604.898438 C 242.941406 603.28125 242.882812 601.628906 243.179688 599.972656 C 241.929688 599.808594 240.71875 599.441406 239.453125 599.410156 C 238.894531 599.398438 238.488281 598.835938 238.871094 598.339844 C 240.945312 595.621094 242.871094 590.808594 237.449219 591.136719 C 236.832031 591.171875 236.40625 590.320312 236.984375 589.949219 C 238.632812 588.882812 239.433594 586.957031 240.601562 585.394531 C 239.246094 585.089844 237.980469 584.476562 236.558594 584.417969 C 236.183594 584.402344 235.988281 583.980469 236.019531 583.660156 C 236.242188 581.167969 236.335938 578.578125 237.175781 576.207031 C 236.398438 576.03125 235.664062 575.757812 234.894531 575.476562 C 234.382812 575.289062 234.441406 574.644531 234.773438 574.339844 C 236.660156 572.621094 236.1875 570.285156 233.6875 569.378906 C 233.234375 569.214844 233.15625 568.5 233.566406 568.242188 C 234.800781 567.476562 235.5 566.238281 236.421875 565.179688 C 235.5 564.695312 234.601562 564.167969 233.652344 563.726562 C 233.304688 563.566406 233.203125 563.195312 233.320312 562.851562 C 233.761719 561.589844 234.117188 560.496094 234.917969 559.53125 C 234.128906 558.648438 233.488281 557.671875 232.683594 556.800781 C 232.308594 556.386719 232.722656 555.847656 233.144531 555.75 C 234.644531 555.40625 235.90625 554.511719 237.292969 553.914062 L 235.738281 552.652344 C 235.261719 552.265625 235.539062 551.585938 236.085938 551.480469 C 237.035156 551.296875 237.847656 550.980469 238.667969 550.5625 C 237.941406 550.105469 237.207031 549.671875 236.503906 549.175781 C 236.066406 548.871094 236.261719 548.242188 236.675781 548.046875 C 239.304688 546.796875 242.132812 546.296875 244.933594 545.625 C 244.191406 544.886719 243.457031 544.136719 242.675781 543.429688 C 242.175781 542.980469 242.535156 542.191406 243.199219 542.265625 C 244.855469 542.441406 246.519531 542.453125 248.179688 542.535156 C 247.71875 541.90625 247.332031 541.210938 246.796875 540.597656 C 246.519531 540.28125 246.707031 539.722656 247.082031 539.59375 C 251.417969 538.085938 255.371094 536.390625 259.910156 536.78125 C 259.765625 536.402344 259.957031 535.945312 260.433594 535.890625 C 263.050781 535.609375 265.644531 535.292969 268.214844 534.769531 C 267.710938 534.582031 267.207031 534.394531 266.699219 534.199219 C 266.1875 534.011719 266.1875 533.140625 266.726562 532.984375 C 270.609375 531.871094 274.542969 530.933594 278.519531 530.253906 C 279.527344 530.082031 283.980469 528.78125 284.640625 529.734375 C 284.242188 529.152344 284.320312 528.863281 284.410156 528.183594 C 284.453125 527.867188 284.707031 527.699219 284.992188 527.632812 C 288.464844 526.859375 291.976562 526.375 295.5 525.96875 C 295.496094 525.585938 295.753906 525.214844 296.226562 525.335938 C 297.015625 525.542969 297.773438 525.53125 298.308594 525.054688 C 268.84375 523.90625 246.027344 527.894531 232.054688 531.46875 L 232.058594 531.46875 C 220.691406 534.003906 216.421875 529.382812 216.421875 529.382812 C 211.617188 526.726562 211.832031 532.285156 211.832031 532.285156 C 214.832031 535.742188 215.03125 545.105469 215.03125 545.113281 C 213.402344 558.5 211.972656 585.933594 221.191406 617.117188 L 220.972656 616.839844 C 223.503906 628.226562 218.886719 632.496094 218.886719 632.496094 C 216.230469 637.308594 221.789062 637.09375 221.789062 637.09375 C 224.75 634.511719 232.050781 634.003906 234.0625 633.910156 C 247.589844 635.808594 278.210938 637.75 315.648438 625.261719 L 315.625 625.3125 C 315.625 625.3125 324.816406 623.546875 328.824219 625.761719 C 328.824219 625.761719 334.296875 624.808594 330.699219 620.660156 "/>
<path style=" stroke:none;fill-rule:nonzero;fill:rgb(29.019165%,43.139648%,74.899292%);fill-opacity:1;" d="M 398.160156 623.261719 C 398.160156 623.261719 392.753906 620.050781 392.855469 608.394531 C 394.09375 576.097656 388.277344 550.589844 384.507812 537.773438 L 384.699219 537.871094 C 384.699219 537.871094 382.9375 528.664062 385.148438 524.65625 C 385.148438 524.65625 384.195312 519.171875 380.054688 522.78125 C 380.054688 522.78125 377.679688 526.75 369.648438 527.820312 C 338.292969 526.140625 314.097656 530.339844 299.519531 534.078125 L 299.523438 534.070312 C 288.152344 536.605469 283.882812 531.988281 283.882812 531.988281 C 279.082031 529.324219 279.296875 534.890625 279.296875 534.890625 C 282.296875 538.347656 282.492188 547.710938 282.496094 547.714844 C 280.867188 561.101562 279.433594 588.535156 288.652344 619.722656 L 288.433594 619.441406 C 290.964844 630.828125 286.351562 635.097656 286.351562 635.097656 C 283.691406 639.90625 289.253906 639.699219 289.253906 639.699219 C 292.214844 637.117188 299.515625 636.605469 301.527344 636.511719 C 315.058594 638.410156 345.671875 640.351562 383.109375 627.867188 L 383.085938 627.910156 C 383.085938 627.910156 392.28125 626.152344 396.285156 628.367188 C 396.285156 628.367188 401.765625 627.40625 398.160156 623.261719 "/>
<path style=" stroke:none;fill-rule:nonzero;fill:rgb(23.139954%,36.859131%,70.588684%);fill-opacity:1;" d="M 392.855469 608.394531 C 392.890625 607.351562 392.921875 606.316406 392.953125 605.292969 C 392.632812 605.222656 392.398438 604.953125 392.441406 604.566406 C 392.519531 604.164062 392.511719 603.769531 392.441406 603.378906 C 388.695312 605.292969 383.753906 605.996094 379.703125 606.167969 C 378.050781 606.234375 375.925781 606.417969 374.398438 605.632812 C 373.089844 604.96875 373.5 605.523438 371.875 605.929688 C 370.019531 606.390625 368.199219 606.773438 366.445312 607.570312 C 366.09375 607.722656 365.753906 607.496094 365.59375 607.195312 C 365.230469 606.515625 365.027344 605.9375 364.875 605.304688 C 362.285156 606.894531 359.335938 607.640625 356.257812 606.9375 C 354.25 606.472656 352.839844 605.578125 350.886719 606.707031 C 349.066406 607.761719 347.140625 608.574219 345.15625 609.257812 C 344.84375 609.359375 344.59375 609.257812 344.378906 609.027344 C 342.667969 607.226562 340.960938 606.09375 338.574219 605.359375 C 338.0625 605.199219 338.125 604.507812 338.457031 604.226562 C 339.25 603.558594 339.800781 602.75 340.367188 601.921875 C 339.292969 601.398438 338.269531 600.84375 337.09375 600.488281 C 336.691406 600.371094 336.40625 599.996094 336.601562 599.566406 C 336.90625 598.875 337.234375 598.191406 337.554688 597.507812 C 336.363281 597.457031 334.84375 597.226562 334.492188 596.339844 C 334.105469 595.339844 334.488281 593.582031 334.945312 592.402344 C 331.046875 590.585938 330.417969 586.859375 332.917969 583.722656 C 331.105469 583.464844 329.359375 582.84375 327.496094 582.863281 C 327.097656 582.863281 326.671875 582.546875 326.773438 582.097656 C 327.636719 578.339844 330.046875 575.816406 332.683594 573.222656 C 330.960938 572.199219 329.851562 570.34375 328.386719 568.996094 C 328 568.636719 328.105469 568.097656 328.5625 567.867188 C 330.65625 566.800781 332.488281 566.230469 334.507812 566.453125 C 332.308594 563.960938 330.984375 561.007812 330.9375 557.507812 C 330.929688 557.050781 331.246094 556.75 331.699219 556.785156 C 333.503906 556.90625 335.277344 556.652344 337.070312 556.617188 C 336.640625 556.121094 336.140625 555.6875 335.554688 555.328125 C 335.101562 555.078125 334.992188 554.289062 335.585938 554.109375 C 338.421875 553.242188 341.289062 552.453125 343.996094 551.238281 C 343.484375 550.613281 343.042969 549.953125 342.585938 549.253906 C 342.320312 548.839844 342.527344 548.253906 343.046875 548.203125 C 346.242188 547.898438 352.988281 548.484375 354.96875 545.355469 C 355 545.3125 355.378906 543.851562 355.785156 543.554688 C 356.578125 542.964844 357.875 542.664062 358.796875 542.332031 C 361.1875 541.46875 363.574219 540.640625 365.816406 539.429688 L 364.113281 538.058594 C 363.703125 537.722656 363.847656 537.140625 364.285156 536.929688 C 366.042969 536.078125 367.707031 535.25 369.570312 534.773438 C 369.21875 534.136719 368.933594 533.949219 369.050781 532.925781 C 369.148438 532.078125 371.257812 531.199219 371.882812 530.808594 C 372.171875 530.621094 376.429688 528.109375 376.484375 528.640625 C 376.464844 528.480469 375.023438 527.410156 374.175781 526.753906 C 372.914062 527.199219 371.433594 527.585938 369.648438 527.820312 C 338.292969 526.140625 314.097656 530.339844 299.519531 534.078125 L 299.523438 534.070312 C 288.152344 536.605469 283.882812 531.988281 283.882812 531.988281 C 279.082031 529.324219 279.296875 534.890625 279.296875 534.890625 C 282.296875 538.347656 282.492188 547.710938 282.496094 547.714844 C 280.867188 561.101562 279.433594 588.535156 288.652344 619.722656 L 288.433594 619.441406 C 290.964844 630.828125 286.351562 635.097656 286.351562 635.097656 C 283.691406 639.90625 289.253906 639.699219 289.253906 639.699219 C 292.214844 637.117188 299.515625 636.605469 301.527344 636.511719 C 315.058594 638.410156 345.671875 640.351562 383.109375 627.867188 L 383.085938 627.910156 C 383.085938 627.910156 392.28125 626.152344 396.285156 628.367188 C 396.285156 628.367188 401.765625 627.40625 398.160156 623.261719 C 398.160156 623.261719 392.753906 620.050781 392.855469 608.394531 "/>
<path style=" stroke:none;fill-rule:nonzero;fill:rgb(29.019165%,43.139648%,74.899292%);fill-opacity:1;" d="M 384.535156 522.9375 C 383.855469 521.710938 382.527344 520.625 380.054688 522.78125 C 380.054688 522.78125 379.675781 523.402344 378.734375 524.214844 C 380.683594 523.855469 382.628906 523.464844 384.535156 522.9375 "/>
<path style=" stroke:none;fill-rule:nonzero;fill:rgb(21.179199%,34.118652%,64.709473%);fill-opacity:1;" d="M 398.160156 623.261719 C 398.160156 623.261719 394.140625 620.859375 393.101562 612.703125 L 392.800781 612.824219 C 391.925781 614.105469 391.117188 615.382812 390.402344 616.605469 C 390.089844 617.144531 389.21875 617.105469 389.144531 616.402344 L 389.019531 615.210938 C 387.847656 615.996094 386.847656 616.964844 385.78125 617.898438 C 385.570312 618.085938 385.179688 618.0625 384.972656 617.882812 C 384.648438 617.589844 384.398438 617.300781 384.21875 616.992188 C 382.179688 618.710938 380.003906 620.289062 378.492188 622.523438 C 378.15625 623.019531 377.378906 622.71875 377.324219 622.183594 L 377.148438 620.527344 C 376.25 620.433594 375.347656 620.421875 374.449219 620.488281 C 372.59375 620.644531 370.84375 620.925781 369.042969 621.433594 C 368.773438 621.511719 368.433594 621.480469 368.269531 621.210938 C 365.90625 617.386719 357.28125 623.8125 354.957031 625.6875 C 354.554688 626.015625 353.976562 625.699219 353.910156 625.222656 C 353.664062 623.402344 350.992188 624.671875 349.789062 624.632812 C 348.765625 624.601562 346.546875 624.890625 345.707031 624.179688 C 344.609375 623.238281 344 620.640625 341.738281 622.425781 C 341.003906 623.011719 340.191406 623.921875 339.191406 624.054688 C 334.0625 624.71875 328.980469 626.832031 324.832031 622.957031 C 324.09375 623.546875 323.414062 623.847656 322.421875 624.105469 C 321.976562 624.222656 321.40625 623.929688 321.527344 623.386719 C 322 621.367188 321.40625 619.597656 320.988281 617.695312 C 319.933594 618.09375 318.824219 618.28125 317.6875 618.410156 C 317.1875 618.464844 316.816406 617.933594 317.019531 617.484375 C 317.761719 615.789062 318.121094 613.980469 318.710938 612.242188 C 317.246094 612.503906 315.761719 612.457031 314.242188 612.550781 C 313.886719 612.574219 313.558594 612.332031 313.519531 611.964844 C 313.421875 610.9375 313.421875 609.976562 313.601562 608.992188 C 312.480469 608.777344 311.347656 608.71875 310.242188 608.429688 C 309.820312 608.3125 309.574219 607.925781 309.746094 607.5 C 310.402344 605.886719 310.34375 604.230469 310.640625 602.574219 C 309.394531 602.410156 308.183594 602.039062 306.914062 602.011719 C 306.355469 601.996094 305.953125 601.4375 306.335938 600.9375 C 308.410156 598.222656 310.335938 593.410156 304.910156 593.738281 C 304.292969 593.773438 303.871094 592.925781 304.449219 592.546875 C 306.09375 591.484375 306.898438 589.558594 308.0625 587.992188 C 306.707031 587.695312 305.445312 587.078125 304.023438 587.023438 C 303.648438 587 303.453125 586.582031 303.480469 586.257812 C 303.703125 583.769531 303.800781 581.183594 304.636719 578.808594 C 303.863281 578.636719 303.132812 578.355469 302.355469 578.074219 C 301.847656 577.890625 301.902344 577.246094 302.238281 576.941406 C 304.125 575.222656 303.648438 572.882812 301.148438 571.980469 C 300.699219 571.816406 300.625 571.101562 301.023438 570.847656 C 302.265625 570.074219 302.957031 568.835938 303.886719 567.78125 C 302.964844 567.292969 302.066406 566.773438 301.113281 566.328125 C 300.769531 566.164062 300.664062 565.796875 300.785156 565.453125 C 301.222656 564.191406 301.578125 563.097656 302.378906 562.132812 C 301.589844 561.25 300.953125 560.277344 300.144531 559.402344 C 299.765625 558.988281 300.183594 558.453125 300.609375 558.355469 C 302.109375 558.003906 303.363281 557.109375 304.761719 556.511719 L 303.203125 555.253906 C 302.726562 554.867188 303.003906 554.1875 303.546875 554.082031 C 304.496094 553.898438 305.3125 553.582031 306.132812 553.164062 C 305.40625 552.707031 304.667969 552.269531 303.964844 551.777344 C 303.53125 551.472656 303.722656 550.847656 304.140625 550.648438 C 306.765625 549.402344 309.597656 548.898438 312.402344 548.230469 C 311.652344 547.488281 310.921875 546.742188 310.140625 546.03125 C 309.644531 545.582031 309.996094 544.796875 310.660156 544.867188 C 312.320312 545.042969 313.984375 545.054688 315.644531 545.140625 C 315.183594 544.507812 314.789062 543.816406 314.257812 543.195312 C 313.980469 542.882812 314.167969 542.324219 314.550781 542.191406 C 318.875 540.6875 322.832031 539 327.371094 539.382812 C 327.226562 539.003906 327.421875 538.542969 327.898438 538.492188 C 330.515625 538.210938 333.105469 537.894531 335.671875 537.371094 C 335.171875 537.179688 334.667969 536.992188 334.164062 536.804688 C 333.652344 536.613281 333.648438 535.738281 334.191406 535.585938 C 338.070312 534.476562 342.007812 533.53125 345.980469 532.859375 C 346.992188 532.6875 351.449219 531.382812 352.101562 532.328125 C 351.699219 531.757812 351.785156 531.464844 351.875 530.785156 C 351.914062 530.46875 352.167969 530.296875 352.453125 530.234375 C 355.925781 529.460938 359.4375 528.976562 362.960938 528.570312 C 362.957031 528.1875 363.214844 527.820312 363.6875 527.9375 C 364.480469 528.140625 365.234375 528.136719 365.773438 527.652344 C 336.304688 526.503906 313.488281 530.496094 299.519531 534.078125 L 299.523438 534.066406 C 288.152344 536.605469 283.882812 531.988281 283.882812 531.988281 C 279.082031 529.324219 279.296875 534.890625 279.296875 534.890625 C 282.296875 538.347656 282.492188 547.710938 282.496094 547.714844 C 280.863281 561.101562 279.4375 588.535156 288.660156 619.722656 L 288.433594 619.441406 C 290.964844 630.828125 286.351562 635.097656 286.351562 635.097656 C 283.691406 639.90625 289.25 639.695312 289.25 639.695312 C 292.214844 637.117188 299.515625 636.605469 301.527344 636.511719 C 315.058594 638.410156 345.671875 640.351562 383.109375 627.867188 L 383.085938 627.910156 C 383.085938 627.910156 392.28125 626.152344 396.285156 628.367188 C 396.285156 628.367188 401.765625 627.40625 398.160156 623.261719 "/>
<path style=" stroke:none;fill-rule:nonzero;fill:rgb(12.159729%,25.878906%,44.709778%);fill-opacity:1;" d="M 378.238281 390.582031 C 374.070312 397.019531 371.246094 404.621094 371.605469 412.367188 C 371.964844 419.988281 375.914062 426.8125 377.425781 434.1875 C 379.253906 443.109375 376.214844 448.785156 370.132812 455.042969 C 365.652344 459.65625 361.804688 468.089844 362.796875 474.628906 C 363.746094 480.90625 370.945312 483.363281 371.53125 489.335938 C 372.078125 494.914062 366.472656 499.972656 370.917969 505 C 375.316406 509.960938 382.679688 509.347656 388.582031 508.925781 C 398.398438 508.21875 408.316406 508.089844 418.09375 508.925781 C 425.402344 509.546875 431.835938 508.324219 436.875 502.632812 C 441.660156 497.230469 442.132812 490.558594 439.261719 484.164062 C 436.445312 477.894531 429.230469 469.75 432.699219 462.375 C 435.746094 455.894531 441.675781 455.214844 441.785156 446.996094 C 441.910156 437.796875 435.441406 432.679688 430.332031 425.992188 C 423.132812 416.566406 433.707031 412.894531 434.105469 404.304688 C 434.394531 398.066406 429.210938 386.648438 424.957031 382.609375 C 418.738281 376.695312 404.207031 375.316406 396.84375 377.921875 C 389.039062 380.6875 382.515625 383.976562 378.238281 390.582031 "/>
<path style=" stroke:none;fill-rule:nonzero;fill:rgb(12.159729%,25.878906%,44.709778%);fill-opacity:1;" d="M 398.082031 443.625 C 404.6875 446.507812 412.246094 446.691406 418.714844 442.464844 C 421.746094 440.492188 424.960938 437.707031 427.179688 434.835938 C 438.382812 420.335938 437.558594 398.046875 427.855469 384.613281 C 419.101562 372.484375 400.402344 373.203125 389.5625 382.277344 C 385.851562 385.382812 382.429688 390.09375 380.632812 394.46875 C 375.992188 405.769531 378.164062 423.441406 386.5625 434.535156 C 389.535156 438.457031 393.585938 441.667969 398.082031 443.625 "/>
<path style=" stroke:none;fill-rule:nonzero;fill:rgb(97.24884%,63.139343%,56.079102%);fill-opacity:1;" d="M 396.835938 462.148438 L 418.5625 462.148438 C 413.570312 454.046875 417.484375 443.113281 418.058594 441.617188 L 397.335938 441.617188 C 397.914062 443.113281 401.832031 454.046875 396.835938 462.148438 "/>
<path style=" stroke:none;fill-rule:nonzero;fill:rgb(96.469116%,51.368713%,45.098877%);fill-opacity:1;" d="M 416.066406 452.132812 C 416.121094 446.96875 417.707031 442.53125 418.058594 441.617188 L 397.335938 441.617188 C 397.691406 442.53125 399.277344 446.96875 399.332031 452.132812 C 399.332031 452.132812 407.273438 460.976562 416.066406 452.132812 "/>
<path style=" stroke:none;fill-rule:nonzero;fill:rgb(97.24884%,63.139343%,56.079102%);fill-opacity:1;" d="M 422.425781 438.785156 C 426.730469 435.390625 427.019531 430.789062 427.019531 430.789062 C 427.722656 423.234375 428.058594 420.738281 428.625 416.878906 C 431.039062 400.328125 419.136719 386.578125 407.3125 386.402344 C 395.492188 386.578125 383.585938 400.328125 386.003906 416.878906 C 386.566406 420.738281 386.90625 423.234375 387.609375 430.789062 C 387.609375 430.789062 388.125 434.988281 392.199219 438.785156 C 392.199219 438.785156 398.320312 444.871094 404.703125 447.21875 C 404.703125 447.21875 405.738281 447.585938 407.3125 447.613281 C 408.894531 447.585938 409.925781 447.21875 409.925781 447.21875 C 409.925781 447.21875 419.160156 442.371094 422.425781 438.785156 "/>
<path style=" stroke:none;fill-rule:nonzero;fill:rgb(9.01947%,13.729858%,27.059937%);fill-opacity:1;" d="M 415.785156 408.75 C 416.59375 408.195312 417.386719 407.984375 418.121094 407.984375 C 419.207031 407.980469 420.175781 408.476562 420.734375 409.128906 C 421.066406 409.507812 421.636719 409.550781 422.015625 409.222656 C 422.398438 408.890625 422.441406 408.316406 422.109375 407.9375 C 421.1875 406.875 419.746094 406.167969 418.121094 406.164062 C 417.023438 406.164062 415.851562 406.496094 414.757812 407.246094 C 414.34375 407.53125 414.238281 408.097656 414.523438 408.511719 C 414.808594 408.929688 415.371094 409.03125 415.789062 408.75 L 415.785156 408.75 "/>
<path style=" stroke:none;fill-rule:nonzero;fill:rgb(9.01947%,13.729858%,27.059937%);fill-opacity:1;" d="M 400.824219 407.246094 C 399.726562 406.496094 398.558594 406.164062 397.464844 406.164062 C 395.835938 406.167969 394.394531 406.875 393.472656 407.941406 C 393.144531 408.320312 393.1875 408.894531 393.566406 409.222656 C 393.949219 409.550781 394.519531 409.507812 394.851562 409.128906 C 395.40625 408.476562 396.378906 407.980469 397.464844 407.984375 C 398.199219 407.984375 398.988281 408.195312 399.796875 408.75 C 400.214844 409.03125 400.777344 408.929688 401.0625 408.511719 C 401.347656 408.097656 401.238281 407.53125 400.828125 407.246094 L 400.824219 407.246094 "/>
<path style=" stroke:none;fill-rule:nonzero;fill:rgb(96.078491%,48.629761%,43.139648%);fill-opacity:1;" d="M 406.480469 416.878906 C 406.480469 417.699219 406.480469 418.296875 406.449219 418.726562 C 406.429688 419.050781 406.394531 419.273438 406.347656 419.421875 C 406.269531 419.644531 406.203125 419.742188 405.972656 419.949219 C 405.738281 420.152344 405.335938 420.414062 404.757812 420.796875 C 404.394531 421.039062 404.117188 421.257812 403.902344 421.5 C 403.691406 421.734375 403.507812 422.035156 403.503906 422.417969 C 403.503906 422.777344 403.691406 423.074219 403.871094 423.253906 C 404.191406 423.570312 404.546875 423.738281 404.933594 423.945312 C 405.511719 424.246094 406.144531 424.570312 406.59375 425.015625 C 407.046875 425.464844 407.34375 425.960938 407.351562 426.820312 C 407.351562 427.207031 407.667969 427.523438 408.054688 427.523438 C 408.441406 427.523438 408.757812 427.207031 408.757812 426.820312 C 408.761719 425.878906 408.457031 425.097656 408.015625 424.507812 C 407.347656 423.621094 406.429688 423.144531 405.746094 422.789062 C 405.40625 422.613281 405.117188 422.460938 404.96875 422.351562 L 404.886719 422.289062 L 404.863281 422.265625 L 404.757812 422.351562 L 404.882812 422.300781 L 404.863281 422.265625 L 404.757812 422.351562 L 404.882812 422.300781 L 404.605469 422.417969 L 404.90625 422.417969 L 404.882812 422.300781 L 404.605469 422.417969 L 404.90625 422.417969 L 404.699219 422.417969 L 404.890625 422.507812 L 404.90625 422.417969 L 404.699219 422.417969 L 404.890625 422.507812 L 405.03125 422.347656 C 405.132812 422.25 405.304688 422.117188 405.535156 421.964844 C 406.039062 421.628906 406.425781 421.378906 406.761719 421.113281 C 407.011719 420.917969 407.230469 420.699219 407.40625 420.429688 C 407.675781 420.023438 407.785156 419.550781 407.835938 419.011719 C 407.886719 418.464844 407.886719 417.800781 407.886719 416.878906 C 407.886719 416.492188 407.570312 416.179688 407.183594 416.179688 C 406.796875 416.179688 406.480469 416.492188 406.480469 416.878906 "/>
<path style=" stroke:none;fill-rule:nonzero;fill:rgb(96.078491%,48.629761%,43.139648%);fill-opacity:1;" d="M 402.929688 429.195312 C 403.296875 430.242188 404.097656 431.011719 405.03125 431.496094 C 405.972656 431.980469 407.066406 432.210938 408.148438 432.210938 C 409.261719 432.210938 410.367188 431.96875 411.296875 431.441406 C 412.21875 430.917969 412.972656 430.058594 413.207031 428.917969 C 413.28125 428.539062 413.039062 428.171875 412.660156 428.089844 C 412.28125 428.015625 411.910156 428.257812 411.832031 428.636719 C 411.683594 429.328125 411.261719 429.835938 410.601562 430.222656 C 409.941406 430.601562 409.054688 430.8125 408.148438 430.808594 C 407.265625 430.8125 406.378906 430.613281 405.679688 430.246094 C 404.976562 429.878906 404.476562 429.371094 404.253906 428.726562 C 404.125 428.363281 403.722656 428.171875 403.359375 428.296875 C 402.992188 428.425781 402.800781 428.828125 402.929688 429.195312 "/>
<path style=" stroke:none;fill-rule:nonzero;fill:rgb(9.01947%,13.729858%,27.059937%);fill-opacity:1;" d="M 419.054688 413.050781 C 419.050781 414.167969 418.152344 415.070312 417.03125 415.074219 C 415.917969 415.070312 415.011719 414.167969 415.011719 413.050781 C 415.011719 412.664062 414.699219 412.351562 414.3125 412.351562 C 413.929688 412.351562 413.613281 412.664062 413.613281 413.050781 C 413.613281 414.941406 415.144531 416.472656 417.03125 416.472656 C 418.925781 416.472656 420.453125 414.941406 420.453125 413.050781 C 420.453125 412.664062 420.140625 412.351562 419.753906 412.351562 C 419.367188 412.351562 419.054688 412.664062 419.054688 413.050781 "/>
<path style=" stroke:none;fill-rule:nonzero;fill:rgb(9.01947%,13.729858%,27.059937%);fill-opacity:1;" d="M 399.617188 413.050781 C 399.613281 414.167969 398.710938 415.070312 397.59375 415.074219 C 396.480469 415.070312 395.574219 414.167969 395.574219 413.050781 C 395.574219 412.664062 395.257812 412.351562 394.875 412.351562 C 394.488281 412.351562 394.171875 412.664062 394.171875 413.050781 C 394.171875 414.941406 395.707031 416.472656 397.59375 416.472656 C 399.484375 416.472656 401.011719 414.941406 401.011719 413.050781 C 401.011719 412.664062 400.699219 412.351562 400.3125 412.351562 C 399.929688 412.351562 399.617188 412.664062 399.617188 413.050781 "/>
<path style=" stroke:none;fill-rule:nonzero;fill:rgb(96.078491%,47.44873%,51.759338%);fill-opacity:1;" d="M 423.507812 420.738281 C 423.507812 422.089844 421.339844 423.1875 418.667969 423.1875 C 416 423.1875 413.835938 422.089844 413.835938 420.738281 C 413.835938 419.386719 416 418.289062 418.667969 418.289062 C 421.339844 418.289062 423.507812 419.386719 423.507812 420.738281 "/>
<path style=" stroke:none;fill-rule:nonzero;fill:rgb(96.078491%,47.44873%,51.759338%);fill-opacity:1;" d="M 401.253906 420.738281 C 401.253906 422.089844 399.089844 423.1875 396.421875 423.1875 C 393.746094 423.1875 391.582031 422.089844 391.582031 420.738281 C 391.582031 419.386719 393.746094 418.289062 396.421875 418.289062 C 399.089844 418.289062 401.253906 419.386719 401.253906 420.738281 "/>
<path style=" stroke:none;fill-rule:nonzero;fill:rgb(97.24884%,63.139343%,56.079102%);fill-opacity:1;" d="M 449.34375 501.996094 C 454.332031 490.84375 453.152344 483.308594 453.152344 483.308594 C 450.589844 472.703125 434.519531 469.027344 434.519531 469.027344 C 418.476562 464.132812 416.722656 459.292969 416.722656 459.292969 L 398.675781 459.292969 C 398.675781 459.292969 396.921875 464.132812 380.878906 469.027344 C 380.878906 469.027344 364.808594 472.703125 362.246094 483.308594 C 362.246094 483.308594 361.066406 490.84375 366.054688 501.996094 C 366.054688 501.996094 377.75 531.902344 382.753906 545.898438 C 382.753906 545.898438 386.628906 554.761719 380.878906 568.757812 L 372.828125 587.890625 L 442.570312 587.890625 L 434.519531 568.757812 C 428.769531 554.761719 432.648438 545.898438 432.648438 545.898438 C 437.644531 531.902344 449.34375 501.996094 449.34375 501.996094 "/>
<path style=" stroke:none;fill-rule:nonzero;fill:rgb(32.939148%,41.178894%,58.81958%);fill-opacity:1;" d="M 448.121094 596.878906 C 443.921875 589.058594 438.3125 577.765625 438.3125 577.765625 C 437.644531 584.128906 410.585938 584.480469 406.773438 584.511719 C 403.140625 584.480469 379.515625 584.070312 376.980469 578.019531 C 376.980469 578.019531 370.757812 589.113281 366.800781 596.878906 C 366.800781 596.878906 359.03125 615.371094 406.277344 618.4375 L 406.277344 618.5 C 406.441406 618.492188 406.597656 618.480469 406.761719 618.472656 C 406.929688 618.480469 407.082031 618.492188 407.25 618.5 L 407.25 618.4375 C 454.511719 615.371094 448.121094 596.878906 448.121094 596.878906 "/>
<path style=" stroke:none;fill-rule:nonzero;fill:rgb(97.24884%,63.139343%,56.079102%);fill-opacity:1;" d="M 433.71875 424.140625 C 433.367188 427.332031 431.132812 429.699219 428.726562 429.4375 C 426.324219 429.171875 424.65625 426.371094 425.007812 423.183594 C 425.355469 420 427.589844 417.625 429.996094 417.890625 C 432.402344 418.15625 434.066406 420.953125 433.71875 424.140625 "/>
<path style=" stroke:none;fill-rule:nonzero;fill:rgb(96.078491%,48.629761%,43.139648%);fill-opacity:1;" d="M 429.515625 421.234375 C 429.734375 421.335938 429.914062 421.53125 430.058594 421.863281 C 430.199219 422.195312 430.28125 422.648438 430.28125 423.128906 C 430.28125 423.6875 430.175781 424.292969 429.984375 424.796875 C 429.796875 425.308594 429.523438 425.714844 429.265625 425.914062 C 428.964844 426.15625 428.914062 426.597656 429.152344 426.898438 C 429.394531 427.203125 429.832031 427.253906 430.136719 427.011719 C 430.679688 426.578125 431.046875 425.964844 431.300781 425.289062 C 431.550781 424.609375 431.683594 423.863281 431.683594 423.128906 C 431.679688 422.496094 431.585938 421.871094 431.347656 421.3125 C 431.113281 420.757812 430.710938 420.246094 430.117188 419.960938 C 429.765625 419.796875 429.347656 419.949219 429.179688 420.296875 C 429.015625 420.648438 429.167969 421.066406 429.515625 421.234375 "/>
<path style=" stroke:none;fill-rule:nonzero;fill:rgb(96.078491%,48.629761%,43.139648%);fill-opacity:1;" d="M 428.648438 423.671875 C 428.847656 423.636719 429.089844 423.613281 429.324219 423.613281 C 429.816406 423.601562 430.261719 423.746094 430.382812 423.886719 C 430.660156 424.164062 431.101562 424.164062 431.375 423.886719 C 431.648438 423.613281 431.648438 423.167969 431.375 422.894531 C 430.765625 422.316406 429.996094 422.21875 429.324219 422.210938 C 428.992188 422.210938 428.675781 422.242188 428.398438 422.292969 C 428.015625 422.359375 427.765625 422.726562 427.832031 423.109375 C 427.902344 423.488281 428.269531 423.746094 428.648438 423.671875 "/>
<path style=" stroke:none;fill-rule:nonzero;fill:rgb(97.24884%,63.139343%,56.079102%);fill-opacity:1;" d="M 381.371094 424.140625 C 381.722656 427.332031 383.957031 429.699219 386.359375 429.4375 C 388.765625 429.171875 390.433594 426.371094 390.082031 423.183594 C 389.734375 420 387.5 417.625 385.09375 417.890625 C 382.691406 418.15625 381.023438 420.953125 381.371094 424.140625 "/>
<path style=" stroke:none;fill-rule:nonzero;fill:rgb(96.078491%,48.629761%,43.139648%);fill-opacity:1;" d="M 384.972656 419.960938 C 384.378906 420.242188 383.976562 420.757812 383.738281 421.3125 C 383.5 421.871094 383.40625 422.496094 383.402344 423.128906 C 383.40625 423.863281 383.535156 424.609375 383.789062 425.289062 C 384.042969 425.964844 384.40625 426.578125 384.953125 427.011719 C 385.257812 427.253906 385.695312 427.203125 385.9375 426.898438 C 386.175781 426.59375 386.125 426.15625 385.820312 425.914062 C 385.5625 425.710938 385.289062 425.308594 385.101562 424.796875 C 384.914062 424.292969 384.804688 423.691406 384.804688 423.128906 C 384.804688 422.648438 384.886719 422.195312 385.027344 421.863281 C 385.175781 421.53125 385.355469 421.335938 385.574219 421.234375 C 385.921875 421.066406 386.074219 420.648438 385.910156 420.296875 C 385.742188 419.949219 385.324219 419.796875 384.972656 419.960938 "/>
<path style=" stroke:none;fill-rule:nonzero;fill:rgb(96.078491%,48.629761%,43.139648%);fill-opacity:1;" d="M 386.691406 422.292969 C 386.414062 422.242188 386.097656 422.210938 385.761719 422.210938 C 385.09375 422.21875 384.320312 422.316406 383.714844 422.894531 C 383.441406 423.171875 383.441406 423.617188 383.714844 423.886719 C 383.988281 424.164062 384.433594 424.164062 384.707031 423.886719 C 384.824219 423.746094 385.269531 423.601562 385.761719 423.613281 C 386 423.613281 386.242188 423.636719 386.441406 423.671875 C 386.820312 423.746094 387.1875 423.488281 387.253906 423.109375 C 387.324219 422.726562 387.070312 422.359375 386.691406 422.292969 "/>
<path style=" stroke:none;fill-rule:nonzero;fill:rgb(97.24884%,63.139343%,56.079102%);fill-opacity:1;" d="M 359.550781 488.972656 C 354.210938 505.996094 344.9375 532.746094 340.003906 549.144531 C 340.003906 549.144531 349.882812 568.003906 353.964844 561.28125 C 364.699219 543.609375 365.152344 540.828125 381.480469 500.589844 C 381.480469 500.589844 387.988281 481.746094 375.074219 471.285156 C 375.074219 471.285156 364.683594 472.941406 359.550781 488.972656 "/>
<path style=" stroke:none;fill-rule:nonzero;fill:rgb(97.24884%,63.139343%,56.079102%);fill-opacity:1;" d="M 456.613281 488.972656 C 461.953125 505.996094 471.226562 532.746094 476.164062 549.144531 C 476.164062 549.144531 466.285156 568.003906 462.199219 561.28125 C 451.464844 543.609375 451.011719 540.828125 434.6875 500.589844 C 434.6875 500.589844 428.171875 481.746094 441.089844 471.285156 C 441.089844 471.285156 451.480469 472.941406 456.613281 488.972656 "/>
<path style=" stroke:none;fill-rule:nonzero;fill:rgb(97.24884%,63.139343%,56.079102%);fill-opacity:1;" d="M 530.488281 569.964844 C 530.488281 569.964844 485.042969 567.019531 463.574219 562.730469 C 463.574219 562.730469 457.214844 554.808594 450.65625 539.65625 C 450.65625 539.65625 460.425781 540.671875 473.90625 543.425781 C 473.90625 543.425781 520.234375 559.660156 532.964844 563.265625 L 530.488281 569.964844 "/>
<path style=" stroke:none;fill-rule:nonzero;fill:rgb(97.24884%,63.139343%,56.079102%);fill-opacity:1;" d="M 555.316406 562.582031 C 555.253906 558.90625 550.101562 558.878906 548.078125 558.304688 C 548.078125 558.304688 546.996094 560.371094 550.742188 561.605469 L 548.839844 563.230469 L 540.394531 562.957031 C 541.277344 561.820312 542.511719 560.921875 542.511719 560.921875 C 541.785156 560.796875 547.160156 561.566406 548.078125 558.304688 C 546.074219 557.664062 542.65625 557.507812 540.046875 557.945312 C 537.726562 558.171875 532.964844 563.265625 532.964844 563.265625 L 528.152344 563.511719 L 526.980469 569.484375 L 530.890625 571.183594 C 534.628906 575.109375 543.996094 576.628906 543.996094 576.628906 C 546.039062 577.417969 553.390625 578.09375 555.128906 576.503906 C 554.738281 574.910156 550.566406 574.382812 545.675781 572.738281 C 550.851562 573.570312 559.511719 575.871094 561.007812 573.53125 C 560.449219 571.464844 550.199219 570.882812 546.34375 570.269531 C 548.753906 570.0625 562.886719 572.222656 562.988281 570.097656 C 562.460938 567.851562 550.242188 567.242188 550.128906 567.253906 L 555.316406 562.582031 "/>
<path style=" stroke:none;fill-rule:nonzero;fill:rgb(97.24884%,63.139343%,56.079102%);fill-opacity:1;" d="M 285.730469 569.964844 C 285.730469 569.964844 331.179688 567.019531 352.648438 562.730469 C 352.648438 562.730469 353.882812 563.609375 365.566406 539.65625 C 365.566406 539.65625 355.792969 540.671875 342.316406 543.425781 C 342.316406 543.425781 295.988281 559.660156 283.253906 563.265625 L 285.730469 569.964844 "/>
<path style=" stroke:none;fill-rule:nonzero;fill:rgb(97.24884%,63.139343%,56.079102%);fill-opacity:1;" d="M 260.902344 562.582031 C 260.964844 558.90625 266.117188 558.878906 268.140625 558.304688 C 268.140625 558.304688 269.222656 560.371094 265.476562 561.605469 L 267.378906 563.230469 L 275.828125 562.957031 C 274.945312 561.820312 273.710938 560.921875 273.710938 560.921875 C 274.4375 560.796875 269.0625 561.566406 268.140625 558.304688 C 270.148438 557.664062 273.5625 557.507812 276.171875 557.945312 C 278.492188 558.171875 283.253906 563.265625 283.253906 563.265625 L 288.066406 563.511719 L 289.242188 569.484375 L 285.332031 571.183594 C 281.589844 575.109375 272.222656 576.628906 272.222656 576.628906 C 270.183594 577.417969 262.828125 578.09375 261.089844 576.503906 C 261.484375 574.910156 265.652344 574.382812 270.542969 572.738281 C 265.367188 573.570312 256.710938 575.871094 255.214844 573.53125 C 255.773438 571.464844 266.023438 570.882812 269.875 570.269531 C 267.46875 570.0625 253.335938 572.222656 253.234375 570.097656 C 253.757812 567.851562 265.980469 567.242188 266.089844 567.253906 L 260.902344 562.582031 "/>
<path style=" stroke:none;fill-rule:nonzero;fill:rgb(31.759644%,40.388489%,67.83905%);fill-opacity:1;" d="M 437.167969 575.1875 L 442.570312 587.890625 L 371.550781 587.890625 L 374.328125 575.398438 L 373.328125 520.78125 C 385.882812 497.640625 375.550781 470.382812 375.550781 470.382812 C 378.457031 469.542969 384.394531 467.902344 385.882812 467.34375 C 385.882812 467.34375 384.855469 482.273438 408.210938 481.808594 C 408.210938 481.808594 426.289062 483.886719 428.574219 466.984375 C 430.296875 467.65625 437.125 469.695312 439.375 470.382812 C 439.375 470.382812 431.136719 497.640625 442.445312 519.804688 L 437.167969 575.1875 "/>
<path style=" stroke:none;fill-rule:nonzero;fill:rgb(9.408569%,21.179199%,31.759644%);fill-opacity:1;" d="M 330.664062 627.777344 L 498.339844 627.777344 C 520.722656 630.398438 547.445312 600.242188 527.574219 595.3125 C 488.308594 585.566406 444.039062 587.890625 444.039062 587.890625 L 437.167969 575.1875 C 437.167969 575.1875 410.65625 583.464844 374.328125 575.398438 C 372.0625 584.304688 372.0625 584.304688 369.167969 590.113281 C 369.167969 590.113281 311.207031 582.824219 286.675781 604.089844 C 286.675781 604.089844 295.246094 627.777344 330.664062 627.777344 "/>
<path style=" stroke:none;fill-rule:nonzero;fill:rgb(9.408569%,21.179199%,31.759644%);fill-opacity:1;" d="M 441.382812 633.128906 C 441.382812 633.128906 440.972656 640.226562 438.589844 641.757812 C 438.589844 641.757812 422.742188 644.910156 393.613281 641.058594 C 389.769531 640.871094 355.054688 644.941406 354.234375 644.910156 C 330.089844 643.984375 320.605469 646.855469 298.335938 637.113281 C 290.066406 633.496094 273.664062 609.652344 290.8125 601.152344 C 310.636719 589.285156 356.316406 616.265625 356.332031 616.277344 C 368.824219 623.65625 383.835938 626.507812 398.160156 626.144531 C 406.25 625.945312 440.972656 618.117188 441.382812 633.128906 "/>
<path style=" stroke:none;fill-rule:nonzero;fill:rgb(97.24884%,63.139343%,56.079102%);fill-opacity:1;" d="M 451.574219 622.253906 C 444.089844 623.867188 434.664062 624.191406 423.660156 621.101562 C 419.316406 618.457031 413.730469 619.671875 409.941406 622.636719 C 409.941406 622.636719 405.898438 630.8125 390.285156 626.144531 C 390.285156 626.144531 386.71875 627.105469 386.121094 630.113281 C 386.121094 630.113281 382.859375 636.410156 388.917969 638.742188 C 388.917969 638.742188 404.765625 641.894531 433.890625 638.042969 C 435.59375 637.960938 443.375 638.714844 451.574219 639.574219 L 451.574219 622.253906 "/>
<path style=" stroke:none;fill-rule:nonzero;fill:rgb(9.408569%,21.179199%,31.759644%);fill-opacity:1;" d="M 536.695312 598.136719 C 516.863281 586.265625 471.175781 613.257812 471.175781 613.257812 C 471.175781 613.257812 461.71875 621.648438 445.398438 623.207031 L 445.398438 638.945312 C 456.90625 640.089844 472.71875 641.914062 473.273438 641.894531 C 497.417969 640.96875 506.902344 643.839844 529.167969 634.097656 C 537.441406 630.476562 553.84375 606.636719 536.695312 598.136719 "/>
<path style=" stroke:none;fill-rule:nonzero;fill:rgb(9.01947%,13.729858%,27.059937%);fill-opacity:1;" d="M 509.40625 596.425781 C 500.117188 597.488281 493.921875 600.691406 488.265625 603.292969 C 480.832031 606.714844 474.136719 611.425781 467.210938 615.3125 C 460.289062 619.207031 453.160156 622.285156 444.832031 622.554688 C 444.410156 622.566406 443.988281 622.574219 443.5625 622.574219 C 437.71875 622.574219 431.878906 621.324219 425.726562 620.574219 C 423.164062 620.269531 420.21875 619.289062 417.109375 619.285156 C 415.460938 619.28125 413.753906 619.566406 412.0625 620.398438 C 410.378906 621.230469 408.722656 622.59375 407.140625 624.6875 C 406.90625 624.996094 406.96875 625.433594 407.277344 625.667969 C 407.582031 625.902344 408.023438 625.839844 408.253906 625.535156 C 409.734375 623.578125 411.214844 622.378906 412.679688 621.652344 C 414.148438 620.9375 415.617188 620.683594 417.109375 620.679688 C 419.925781 620.675781 422.792969 621.621094 425.558594 621.964844 C 431.628906 622.699219 437.519531 623.972656 443.5625 623.972656 C 444 623.972656 444.441406 623.964844 444.878906 623.949219 C 453.53125 623.671875 460.894531 620.472656 467.898438 616.535156 C 474.902344 612.59375 481.566406 607.914062 488.847656 604.566406 C 494.554688 601.941406 500.527344 598.855469 509.5625 597.820312 C 509.945312 597.773438 510.222656 597.425781 510.179688 597.042969 C 510.132812 596.65625 509.789062 596.382812 509.40625 596.425781 "/>
<path style=" stroke:none;fill-rule:nonzero;fill:rgb(9.01947%,13.729858%,27.059937%);fill-opacity:1;" d="M 384.753906 467.210938 C 384.703125 467.636719 384.675781 468.054688 384.675781 468.472656 C 384.679688 471.410156 385.902344 474.109375 387.765625 476.257812 C 389.628906 478.410156 392.136719 480.039062 394.792969 480.859375 C 398.070312 481.871094 403.269531 482.5 408.714844 482.503906 C 410.4375 482.503906 412.179688 482.441406 413.890625 482.300781 C 414.277344 482.269531 414.5625 481.933594 414.53125 481.550781 C 414.503906 481.164062 414.164062 480.875 413.78125 480.90625 C 412.105469 481.039062 410.402344 481.105469 408.714844 481.105469 C 403.386719 481.109375 398.25 480.464844 395.207031 479.523438 C 392.808594 478.78125 390.503906 477.289062 388.820312 475.34375 C 387.136719 473.394531 386.074219 471.015625 386.074219 468.472656 C 386.074219 468.113281 386.097656 467.746094 386.140625 467.378906 C 386.1875 466.996094 385.914062 466.648438 385.53125 466.601562 C 385.148438 466.558594 384.800781 466.828125 384.753906 467.214844 L 384.753906 467.210938 "/>
<path style=" stroke:none;fill-rule:nonzero;fill:rgb(9.01947%,13.729858%,27.059937%);fill-opacity:1;" d="M 381.097656 576.96875 C 390.21875 578.984375 399.671875 579.949219 409.105469 579.949219 C 409.9375 579.949219 410.773438 579.941406 411.609375 579.929688 C 416.539062 579.839844 421.527344 579.539062 426.398438 578.761719 C 428.890625 578.363281 431.378906 577.8125 433.730469 576.941406 C 434.089844 576.804688 434.273438 576.402344 434.144531 576.039062 C 434.007812 575.675781 433.605469 575.492188 433.242188 575.625 C 431.011719 576.453125 428.613281 576.992188 426.183594 577.382812 C 421.398438 578.144531 416.472656 578.4375 411.582031 578.527344 C 410.757812 578.542969 409.929688 578.550781 409.105469 578.550781 C 399.769531 578.550781 390.410156 577.59375 381.402344 575.601562 C 381.023438 575.515625 380.652344 575.753906 380.570312 576.132812 C 380.484375 576.511719 380.722656 576.882812 381.097656 576.96875 "/>
<path style=" stroke:none;fill-rule:nonzero;fill:rgb(31.759644%,40.388489%,67.83905%);fill-opacity:1;" d="M 375.550781 470.382812 C 375.550781 470.382812 361.917969 471.84375 354.054688 493.539062 L 345.101562 519.238281 C 345.101562 519.238281 356.152344 532.144531 373.398438 533.308594 L 386.386719 498.261719 C 386.386719 498.261719 392.675781 479.773438 375.550781 470.382812 "/>
<path style=" stroke:none;fill-rule:nonzero;fill:rgb(31.759644%,40.388489%,67.83905%);fill-opacity:1;" d="M 439.375 470.382812 C 439.375 470.382812 453.007812 471.84375 460.875 493.539062 L 469.828125 519.238281 C 469.828125 519.238281 458.773438 532.144531 441.53125 533.308594 L 428.539062 498.261719 C 428.539062 498.261719 422.25 479.773438 439.375 470.382812 "/>
<path style=" stroke:none;fill-rule:nonzero;fill:rgb(97.24884%,63.139343%,56.079102%);fill-opacity:1;" d="M 398.234375 626.011719 C 392.738281 626.09375 387.144531 625.699219 381.640625 624.757812 L 381.464844 641.707031 C 387.359375 641.179688 392.234375 640.800781 393.539062 640.878906 C 422.625 645.027344 438.5 642.035156 438.5 642.035156 C 440.902344 640.527344 441.386719 633.433594 441.386719 633.433594 C 441.128906 618.417969 406.328125 625.890625 398.234375 626.011719 "/>
<path style=" stroke:none;fill-rule:nonzero;fill:rgb(9.408569%,21.179199%,31.759644%);fill-opacity:1;" d="M 389.007812 625.921875 C 377.597656 625.089844 366.183594 622.097656 356.332031 616.277344 C 356.316406 616.265625 310.636719 589.285156 290.8125 601.152344 C 273.664062 609.652344 290.066406 633.496094 298.335938 637.113281 C 320.605469 646.855469 330.089844 643.984375 354.234375 644.910156 C 354.910156 644.9375 378.515625 642.1875 389.007812 641.316406 L 389.007812 625.921875 "/>
<path style=" stroke:none;fill-rule:nonzero;fill:rgb(9.01947%,13.729858%,27.059937%);fill-opacity:1;" d="M 313.121094 600.269531 C 313.410156 600.261719 313.695312 600.253906 313.984375 600.253906 C 323.585938 600.238281 334.523438 606.066406 343.207031 610.339844 C 353.125 615.191406 362.339844 622.300781 373.683594 624.828125 C 380.621094 626.367188 387.683594 626.8125 394.773438 626.8125 C 398.660156 626.8125 402.558594 626.679688 406.449219 626.515625 C 412.300781 626.269531 417.699219 625.328125 423.222656 625.109375 C 425.414062 625.019531 427.632812 624.78125 429.765625 624.785156 C 432.730469 624.785156 435.492188 625.230469 437.898438 627.0625 C 438.792969 627.742188 439.648438 628.996094 440.246094 630.507812 C 440.851562 632.015625 441.207031 633.773438 441.207031 635.425781 C 441.207031 636.742188 440.980469 637.996094 440.5 639.007812 C 440.015625 640.023438 439.308594 640.800781 438.285156 641.277344 C 437.929688 641.4375 437.777344 641.851562 437.941406 642.203125 C 438.101562 642.554688 438.515625 642.710938 438.867188 642.546875 C 440.21875 641.929688 441.175781 640.859375 441.761719 639.605469 C 442.359375 638.347656 442.609375 636.902344 442.609375 635.425781 C 442.605469 633.574219 442.214844 631.664062 441.546875 629.988281 C 440.875 628.316406 439.933594 626.863281 438.746094 625.949219 C 435.996094 623.855469 432.855469 623.378906 429.765625 623.382812 C 427.53125 623.382812 425.296875 623.625 423.167969 623.707031 C 417.519531 623.933594 412.125 624.878906 406.390625 625.117188 C 402.507812 625.277344 398.628906 625.410156 394.773438 625.410156 C 387.742188 625.414062 380.785156 624.96875 373.984375 623.460938 C 363.035156 621.042969 353.902344 614.039062 343.820312 609.082031 C 335.152344 604.839844 324.128906 598.871094 313.984375 598.851562 C 313.679688 598.851562 313.375 598.859375 313.070312 598.871094 C 312.683594 598.882812 312.382812 599.210938 312.398438 599.597656 C 312.410156 599.984375 312.734375 600.285156 313.121094 600.269531 "/>
<path style=" stroke:none;fill-rule:nonzero;fill:rgb(9.01947%,13.729858%,27.059937%);fill-opacity:1;" d="M 440.058594 628.792969 C 440.058594 628.792969 439.964844 628.8125 439.777344 628.847656 C 439.21875 628.945312 437.886719 629.152344 436.394531 629.152344 C 435.488281 629.152344 434.523438 629.074219 433.648438 628.867188 C 433.269531 628.777344 432.894531 629.007812 432.804688 629.386719 C 432.714844 629.761719 432.949219 630.140625 433.324219 630.226562 C 434.347656 630.46875 435.410156 630.546875 436.394531 630.550781 C 438.546875 630.546875 440.320312 630.167969 440.351562 630.164062 C 440.730469 630.082031 440.96875 629.707031 440.886719 629.332031 C 440.808594 628.953125 440.433594 628.710938 440.058594 628.792969 "/>
<path style=" stroke:none;fill-rule:nonzero;fill:rgb(9.01947%,13.729858%,27.059937%);fill-opacity:1;" d="M 441.035156 632.390625 L 440.984375 632.398438 C 440.710938 632.449219 439.417969 632.679688 437.492188 632.679688 C 436.835938 632.679688 436.105469 632.652344 435.320312 632.585938 C 434.933594 632.550781 434.59375 632.835938 434.558594 633.21875 C 434.523438 633.605469 434.8125 633.945312 435.195312 633.980469 C 436.027344 634.050781 436.796875 634.078125 437.492188 634.078125 C 439.816406 634.078125 441.289062 633.765625 441.324219 633.757812 C 441.703125 633.679688 441.941406 633.304688 441.863281 632.925781 C 441.78125 632.550781 441.410156 632.308594 441.035156 632.390625 "/>
<path style=" stroke:none;fill-rule:nonzero;fill:rgb(9.01947%,13.729858%,27.059937%);fill-opacity:1;" d="M 441.6875 636.199219 C 441.6875 636.199219 441.535156 636.222656 441.269531 636.269531 C 440.46875 636.390625 438.636719 636.644531 437.035156 636.644531 C 436.648438 636.644531 436.277344 636.628906 435.9375 636.597656 C 435.554688 636.558594 435.214844 636.839844 435.175781 637.226562 C 435.140625 637.609375 435.421875 637.953125 435.804688 637.992188 C 436.199219 638.027344 436.613281 638.046875 437.035156 638.046875 C 439.351562 638.042969 441.914062 637.578125 441.933594 637.578125 C 442.3125 637.507812 442.566406 637.144531 442.5 636.765625 C 442.433594 636.382812 442.066406 636.132812 441.6875 636.199219 "/>
<path style=" stroke:none;fill-rule:nonzero;fill:rgb(12.159729%,25.878906%,44.709778%);fill-opacity:1;" d="M 415.394531 393.082031 C 419.71875 396.785156 422.5625 407.800781 421.246094 413.160156 C 420.203125 417.410156 417.230469 421.011719 416.808594 425.4375 C 416.109375 432.734375 423.621094 437.316406 423.839844 444.457031 C 424.089844 452.527344 418.308594 458.765625 415.257812 465.761719 C 411.917969 473.421875 415.171875 481.273438 416.761719 488.902344 C 418.011719 494.886719 414.855469 505.910156 419.960938 510.21875 C 422.941406 512.730469 428.8125 513.441406 432.394531 512.027344 C 438.824219 509.496094 437.8125 501.542969 441.800781 497.050781 C 445.683594 492.664062 456.484375 495.8125 457.890625 488.984375 C 458.910156 484.019531 453.316406 478.925781 451.4375 474.660156 C 447.058594 464.699219 455.445312 454.238281 450.53125 445.066406 C 448.011719 440.355469 444.4375 437.050781 443.988281 431.328125 C 443.574219 426.066406 447.382812 421.253906 443.890625 416.367188 C 440.128906 411.105469 437.550781 408.640625 438.039062 401.933594 C 439.164062 386.402344 430.332031 380.453125 425.242188 378.230469 C 398.792969 366.6875 399.605469 393.140625 399.605469 393.140625 C 399.605469 393.140625 406.128906 389.605469 415.394531 393.082031 "/>
<path style=" stroke:none;fill-rule:nonzero;fill:rgb(12.159729%,25.878906%,44.709778%);fill-opacity:1;" d="M 392.730469 399.164062 C 394.757812 396.183594 397.464844 393.746094 400.898438 392.644531 C 407.496094 390.527344 416.203125 391.613281 420.992188 397.238281 C 424.167969 400.980469 426.152344 405.871094 426.625 410.714844 C 426.777344 412.25 426.867188 419.277344 429.996094 417.890625 C 432.628906 416.722656 432.289062 407.320312 431.9375 405.234375 C 431.207031 400.949219 430.167969 396.890625 427.753906 393.105469 C 423.199219 385.964844 415.320312 381.707031 407.003906 381.027344 C 397.839844 380.273438 388.417969 387.09375 384.867188 395.445312 C 383.808594 397.929688 380.414062 417.132812 385.097656 417.890625 C 387.738281 418.316406 388.4375 409.808594 388.792969 408.316406 C 389.527344 405.230469 390.828125 401.957031 392.730469 399.164062 "/>
<path style=" stroke:none;fill-rule:nonzero;fill:rgb(9.01947%,13.729858%,27.059937%);fill-opacity:1;" d="M 475.285156 542.761719 C 475.125 542.746094 474.964844 542.738281 474.804688 542.738281 C 473.136719 542.742188 471.566406 543.464844 470.269531 544.367188 C 468.976562 545.28125 467.957031 546.371094 467.402344 547.296875 C 467.199219 547.628906 467.3125 548.058594 467.640625 548.257812 C 467.972656 548.457031 468.402344 548.34375 468.601562 548.015625 C 469.007812 547.320312 469.9375 546.308594 471.070312 545.511719 C 472.210938 544.714844 473.5625 544.132812 474.804688 544.136719 L 475.160156 544.152344 C 475.546875 544.1875 475.886719 543.902344 475.917969 543.519531 C 475.953125 543.132812 475.671875 542.792969 475.285156 542.761719 "/>
<path style=" stroke:none;fill-rule:nonzero;fill:rgb(9.01947%,13.729858%,27.059937%);fill-opacity:1;" d="M 341.007812 544.351562 C 341.410156 544.207031 341.824219 544.140625 342.25 544.140625 C 344.109375 544.121094 346.242188 545.492188 347.464844 546.941406 C 347.714844 547.238281 348.15625 547.273438 348.449219 547.023438 C 348.742188 546.773438 348.78125 546.328125 348.53125 546.035156 C 347.085938 544.359375 344.753906 542.761719 342.25 542.742188 C 341.679688 542.742188 341.101562 542.832031 340.539062 543.03125 C 340.175781 543.160156 339.984375 543.558594 340.113281 543.921875 C 340.242188 544.289062 340.640625 544.476562 341.007812 544.351562 "/>
</g>
</svg>
